<svg width="114" height="64" viewBox="0 0 114 64" fill="none" xmlns="http://www.w3.org/2000/svg">
<path fill-rule="evenodd" clip-rule="evenodd" d="M76.1131 4.38281L51.9158 4.35664L39.2083 4.34289C35.4737 1.6219 30.8532 0.0105495 25.85 0.00513737C13.8612 -0.00783116 4.05031 9.2048 3.35394 20.8298L0.930575 43.201C-1.80065 62.5523 19.2506 68.9939 28.5431 53.3056L35.1661 42.392L51.8746 42.41L79.2157 42.4396L85.6215 54.7303C91.1429 67.6136 115.769 67.9238 113.261 43.6847L111.956 21.4725C111.554 9.60008 101.65 0.0871 89.4808 0.0739368C84.4775 0.0685246 79.8536 1.66989 76.1131 4.38281ZM89.4627 16.9865C86.9774 16.9838 84.9614 14.9922 84.964 12.5473C84.9667 10.0967 86.987 8.11524 89.4723 8.11793C91.9576 8.12062 93.9736 10.1064 93.971 12.5571C93.9683 15.0077 91.948 16.9892 89.4627 16.9865ZM84.9445 30.4343C84.9419 32.8792 86.9579 34.8708 89.4432 34.8735C91.9285 34.8761 93.9488 32.8947 93.9514 30.444C93.9541 27.9934 91.938 26.0076 89.4528 26.0049C86.9675 26.0022 84.9472 27.9836 84.9445 30.4343ZM94.042 21.5006C94.0446 19.05 96.065 17.0686 98.5502 17.0712C101.041 17.0739 103.057 19.0597 103.049 21.5104C103.046 23.9611 101.026 25.9425 98.5406 25.9398C96.0554 25.9371 94.0393 23.9513 94.042 21.5006ZM80.375 17.0516C77.8897 17.0489 75.8693 19.0303 75.8667 21.481C75.864 23.9317 77.8801 25.9174 80.3654 25.9201C82.8506 25.9228 84.871 23.9414 84.8736 21.4907C84.8763 19.0401 82.8602 17.0543 80.375 17.0516ZM31.0575 23.7653C31.7755 23.7661 32.3581 23.1847 32.3589 22.4667L32.3635 18.2445C32.3642 17.5265 31.7828 16.9439 31.0649 16.9431L26.985 16.9387C26.267 16.9379 25.6856 16.3553 25.6864 15.6373L25.6908 11.5574C25.6916 10.8394 25.1102 10.2568 24.3922 10.256L20.1992 10.2514C19.4812 10.2507 18.8985 10.8321 18.8978 11.55L18.8933 15.6299C18.8926 16.3479 18.3099 16.9293 17.5919 16.9285L13.4829 16.9241C12.7649 16.9233 12.1822 17.5047 12.1815 18.2227L12.1769 22.4449C12.1761 23.1628 12.7575 23.7455 13.4755 23.7463L17.5846 23.7507C18.3025 23.7515 18.8839 24.3342 18.8831 25.0521L18.8787 29.132C18.878 29.85 19.4594 30.4327 20.1773 30.4334L24.3704 30.438C25.0883 30.4388 25.671 29.8574 25.6718 29.1394L25.6762 25.0595C25.677 24.3415 26.2596 23.7601 26.9776 23.7609L31.0575 23.7653Z" fill="black"/>
</svg>
