<svg width="366" height="93" viewBox="0 0 366 93" fill="none" xmlns="http://www.w3.org/2000/svg">
<path d="M153.044 79.1083C153.044 80.066 152.926 80.9214 152.689 81.6747C152.452 82.4279 152.129 83.095 151.72 83.6761C151.322 84.2464 150.86 84.736 150.332 85.1449C149.805 85.5538 149.251 85.8873 148.67 86.1456C148.099 86.4038 147.518 86.5922 146.927 86.7105C146.346 86.8289 145.797 86.8881 145.28 86.8881H135.79V82.6915H145.28C145.818 82.6485 146.303 82.5409 146.733 82.3687C147.174 82.1858 147.551 81.9437 147.863 81.6424C148.175 81.3411 148.417 80.9806 148.589 80.561C148.761 80.1305 148.847 79.6463 148.847 79.1083V77.2037C148.794 76.6765 148.681 76.1922 148.508 75.7511C148.336 75.3099 148.099 74.9333 147.798 74.6212C147.508 74.3092 147.153 74.0671 146.733 73.8949C146.313 73.712 145.829 73.6205 145.28 73.6205H135.822C135.262 73.6205 134.837 73.7658 134.547 74.0563C134.256 74.3468 134.111 74.7665 134.111 75.3153V92.5695H129.914V75.3153C129.914 74.2392 130.108 73.3246 130.495 72.5714C130.894 71.8181 131.383 71.2102 131.964 70.7475C132.556 70.2848 133.196 69.9512 133.885 69.7468C134.574 69.5316 135.209 69.424 135.79 69.424H145.28C146.227 69.424 147.077 69.5477 147.83 69.7952C148.584 70.0319 149.245 70.3547 149.816 70.7636C150.397 71.1618 150.886 71.6244 151.285 72.1517C151.693 72.679 152.027 73.2331 152.285 73.8142C152.554 74.3845 152.748 74.9656 152.866 75.5574C152.985 76.1384 153.044 76.6872 153.044 77.2037V79.1083Z" fill="black"/>
<path d="M177.9 92.5695H158.758C158.456 92.5695 158.177 92.5157 157.918 92.4081C157.66 92.3005 157.434 92.1553 157.24 91.9724C157.058 91.7787 156.912 91.5527 156.805 91.2944C156.697 91.0362 156.643 90.7564 156.643 90.4551V69.424H160.84V88.373H177.9V92.5695Z" fill="black"/>
<path d="M203.693 92.5695H199.497V86.8881H184.744V92.5695H180.547V80.9968C180.547 79.3074 180.838 77.7525 181.419 76.3321C182 74.9118 182.807 73.6904 183.84 72.6682C184.873 71.646 186.094 70.8497 187.504 70.2794C188.914 69.7091 190.452 69.424 192.12 69.424H201.579C201.869 69.424 202.144 69.4778 202.402 69.5854C202.66 69.693 202.886 69.8436 203.08 70.0373C203.273 70.231 203.424 70.4569 203.532 70.7152C203.639 70.9734 203.693 71.2478 203.693 71.5384V92.5695ZM184.744 82.6915H199.497V73.6205H192.12C191.991 73.6205 191.717 73.642 191.297 73.6851C190.888 73.7173 190.409 73.8088 189.861 73.9595C189.323 74.1101 188.752 74.3414 188.15 74.6535C187.547 74.9656 186.993 75.396 186.487 75.9447C185.981 76.4935 185.562 77.1822 185.228 78.0107C184.905 78.8285 184.744 79.8239 184.744 80.9968V82.6915Z" fill="black"/>
<path d="M230.632 77.1714C230.632 78.1291 230.508 78.9846 230.26 79.7378C230.024 80.491 229.706 81.1582 229.308 81.7392C228.91 82.3095 228.442 82.7991 227.904 83.208C227.377 83.6169 226.828 83.9559 226.258 84.2249C225.687 84.4831 225.106 84.6714 224.514 84.7898C223.933 84.9082 223.385 84.9673 222.868 84.9673H221.173V92.5695H216.944V84.9673H215.266C214.749 84.9673 214.195 84.9082 213.603 84.7898C213.022 84.6714 212.441 84.4831 211.86 84.2249C211.29 83.9559 210.741 83.6169 210.214 83.208C209.687 82.7991 209.219 82.3095 208.81 81.7392C208.411 81.1582 208.089 80.491 207.841 79.7378C207.604 78.9738 207.486 78.1183 207.486 77.1714V69.424H211.683V77.1714C211.683 77.7202 211.769 78.2152 211.941 78.6564C212.113 79.0868 212.355 79.458 212.667 79.7701C212.979 80.0821 213.356 80.3242 213.797 80.4964C214.249 80.6578 214.749 80.7385 215.298 80.7385H222.868C223.266 80.6739 223.675 80.5932 224.095 80.4964C224.514 80.3888 224.896 80.2112 225.241 79.9638C225.585 79.7163 225.87 79.3719 226.096 78.9308C226.322 78.4896 226.435 77.9031 226.435 77.1714V69.424H230.632V77.1714Z" fill="black"/>
<path d="M158.323 53.8324H151.338L140.265 42.8011H136.801V37.869H140.265L151.338 26.8376H158.323L144.372 40.335L158.323 53.8324ZM134.832 53.8324H129.911V26.8376H134.832V53.8324Z" fill="black"/>
<path d="M166.367 53.8324H161.446V26.8376H166.367V53.8324Z" fill="black"/>
<path d="M199.208 42.5376C199.208 44.1816 198.918 45.6938 198.338 47.0743C197.77 48.4548 196.981 49.6471 195.972 50.6511C194.962 51.6425 193.763 52.4206 192.375 52.9853C190.987 53.5501 189.479 53.8324 187.851 53.8324H174.563C174.21 53.8324 173.882 53.7697 173.579 53.6442C173.276 53.5187 173.011 53.3493 172.784 53.1359C172.57 52.91 172.399 52.6465 172.273 52.3453C172.147 52.0441 172.084 51.7178 172.084 51.3664V29.3037C172.084 28.9649 172.147 28.6448 172.273 28.3436C172.399 28.0424 172.57 27.7789 172.784 27.553C173.011 27.3271 173.276 27.1514 173.579 27.0259C173.882 26.9004 174.21 26.8376 174.563 26.8376H187.851C189.479 26.8376 190.987 27.12 192.375 27.6848C193.763 28.2495 194.962 29.0339 195.972 30.0379C196.981 31.0293 197.77 32.2215 198.338 33.6146C198.918 34.9951 199.208 36.5011 199.208 38.1325V42.5376ZM194.287 38.1325C194.287 37.1788 194.129 36.3065 193.814 35.5159C193.511 34.7252 193.075 34.0538 192.508 33.5016C191.94 32.9369 191.258 32.5039 190.463 32.2027C189.681 31.889 188.81 31.7321 187.851 31.7321H177.005V48.938H187.851C188.81 48.938 189.681 48.7874 190.463 48.4862C191.258 48.1725 191.94 47.7395 192.508 47.1873C193.075 46.6225 193.511 45.9511 193.814 45.173C194.129 44.3824 194.287 43.5039 194.287 42.5376V38.1325Z" fill="black"/>
<path d="M230.119 45.8884C230.119 46.8547 229.993 47.7269 229.74 48.505C229.5 49.2706 229.179 49.9483 228.775 50.5381C228.371 51.1279 227.898 51.6299 227.355 52.0441C226.813 52.4582 226.251 52.7971 225.671 53.0606C225.09 53.3242 224.497 53.5187 223.891 53.6442C223.298 53.7697 222.737 53.8324 222.207 53.8324H203.221V48.938H222.207C223.153 48.938 223.885 48.6619 224.402 48.1097C224.932 47.5575 225.197 46.8171 225.197 45.8884C225.197 45.4366 225.128 45.0224 224.989 44.6459C224.85 44.2694 224.648 43.9431 224.383 43.667C224.131 43.3909 223.816 43.1776 223.437 43.027C223.071 42.8764 222.661 42.8011 222.207 42.8011H210.887C210.092 42.8011 209.234 42.6631 208.313 42.387C207.392 42.0983 206.534 41.6402 205.739 41.0127C204.956 40.3852 204.3 39.5632 203.77 38.5467C203.253 37.5301 202.994 36.2877 202.994 34.8194C202.994 33.351 203.253 32.1149 203.77 31.1109C204.3 30.0943 204.956 29.2723 205.739 28.6448C206.534 28.0048 207.392 27.5467 208.313 27.2706C209.234 26.982 210.092 26.8376 210.887 26.8376H227.639V31.7321H210.887C209.953 31.7321 209.222 32.0145 208.692 32.5792C208.174 33.144 207.915 33.8907 207.915 34.8194C207.915 35.7606 208.174 36.5073 208.692 37.0595C209.222 37.5992 209.953 37.869 210.887 37.869H222.207H222.244C222.774 37.8815 223.336 37.9568 223.929 38.0949C224.522 38.2204 225.109 38.4212 225.689 38.6973C226.283 38.9734 226.844 39.3248 227.374 39.7515C227.904 40.1656 228.371 40.6676 228.775 41.2575C229.191 41.8473 229.519 42.525 229.759 43.2905C229.999 44.0561 230.119 44.922 230.119 45.8884Z" fill="black"/>
<path d="M258.056 85.636C258.056 86.4999 257.945 87.2796 257.723 87.9752C257.513 88.6595 257.23 89.2653 256.875 89.7926C256.52 90.3199 256.104 90.7686 255.627 91.1389C255.15 91.5091 254.656 91.812 254.146 92.0476C253.635 92.2832 253.114 92.4571 252.581 92.5693C252.06 92.6815 251.566 92.7376 251.1 92.7376H234.409V88.3622H251.1C251.932 88.3622 252.576 88.1154 253.031 87.6218C253.497 87.1281 253.73 86.4662 253.73 85.636C253.73 85.2322 253.668 84.8619 253.546 84.5254C253.424 84.1888 253.247 83.8971 253.014 83.6503C252.792 83.4035 252.515 83.2128 252.182 83.0781C251.86 82.9435 251.5 82.8762 251.1 82.8762H241.148C240.449 82.8762 239.695 82.7528 238.885 82.506C238.075 82.2479 237.321 81.8385 236.622 81.2775C235.934 80.7166 235.357 79.9817 234.891 79.073C234.436 78.1643 234.209 77.0536 234.209 75.741C234.209 74.4284 234.436 73.3234 234.891 72.4258C235.357 71.5171 235.934 70.7823 236.622 70.2213C237.321 69.6492 238.075 69.2397 238.885 68.9929C239.695 68.7349 240.449 68.6058 241.148 68.6058H255.876V72.9812H241.148C240.327 72.9812 239.684 73.2336 239.218 73.7385C238.763 74.2433 238.536 74.9108 238.536 75.741C238.536 76.5824 238.763 77.2499 239.218 77.7436C239.684 78.226 240.327 78.4672 241.148 78.4672H251.1H251.133C251.599 78.4784 252.093 78.5457 252.615 78.6691C253.136 78.7813 253.652 78.9608 254.162 79.2076C254.684 79.4544 255.177 79.7686 255.643 80.15C256.109 80.5202 256.52 80.969 256.875 81.4963C257.241 82.0236 257.529 82.6294 257.74 83.3137C257.951 83.9981 258.056 84.7722 258.056 85.636Z" fill="black"/>
<path d="M285.066 92.7376H280.739V86.814H265.528V92.7376H261.202V80.6717C261.202 78.9103 261.501 77.2892 262.1 75.8083C262.699 74.3274 263.531 73.0541 264.596 71.9883C265.662 70.9225 266.921 70.0923 268.374 69.4977C269.828 68.9031 271.414 68.6058 273.134 68.6058H282.886C283.185 68.6058 283.468 68.6619 283.734 68.7741C284.001 68.8863 284.234 69.0434 284.433 69.2453C284.633 69.4472 284.788 69.6828 284.899 69.9521C285.01 70.2213 285.066 70.5074 285.066 70.8103V92.7376ZM265.528 82.4387H280.739V72.9812H273.134C273.001 72.9812 272.718 73.0036 272.285 73.0485C271.863 73.0822 271.37 73.1775 270.804 73.3346C270.249 73.4916 269.661 73.7328 269.04 74.0582C268.419 74.3835 267.847 74.8323 267.326 75.4044C266.804 75.9766 266.372 76.6946 266.028 77.5585C265.695 78.4111 265.528 79.4488 265.528 80.6717V82.4387Z" fill="black"/>
<path d="M309.845 82.8762H296.166V78.4672H309.845V82.8762ZM311.776 72.9812H294.435V92.7376H290.108V70.8103C290.108 70.5074 290.164 70.2213 290.275 69.9521C290.385 69.6828 290.535 69.4472 290.724 69.2453C290.924 69.0434 291.157 68.8863 291.423 68.7741C291.689 68.6619 291.978 68.6058 292.288 68.6058H311.776V72.9812Z" fill="black"/>
<path d="M334.891 82.8762H321.228V78.4672H334.891V82.8762ZM336.838 92.7376H321.228C320.629 92.7376 319.974 92.631 319.264 92.4178C318.554 92.2047 317.894 91.8569 317.284 91.3745C316.685 90.8808 316.18 90.247 315.77 89.4729C315.37 88.6876 315.17 87.7283 315.17 86.5952V70.8103C315.17 70.5074 315.226 70.2213 315.337 69.9521C315.448 69.6828 315.598 69.4472 315.786 69.2453C315.986 69.0434 316.219 68.8863 316.485 68.7741C316.751 68.6619 317.04 68.6058 317.35 68.6058H336.838V72.9812H319.497V86.5952C319.497 87.1674 319.647 87.6049 319.947 87.9078C320.246 88.2108 320.684 88.3622 321.261 88.3622H336.838V92.7376Z" fill="black"/>
<path d="M364.879 76.7171C364.879 77.7155 364.757 78.6074 364.513 79.3927C364.269 80.1781 363.936 80.8736 363.514 81.4795C363.104 82.074 362.627 82.5845 362.083 83.0108C361.54 83.4371 360.968 83.7905 360.369 84.071C359.781 84.3403 359.182 84.5366 358.572 84.66C357.973 84.7834 357.407 84.8451 356.874 84.8451L365.911 92.7376H359.221L350.201 84.8451H347.089V80.4698H356.874C357.418 80.4249 357.912 80.3127 358.355 80.1332C358.81 79.9425 359.199 79.69 359.52 79.3759C359.853 79.0618 360.108 78.686 360.286 78.2484C360.463 77.7997 360.552 77.2892 360.552 76.7171V73.9572C360.552 73.7104 360.519 73.5253 360.452 73.4019C360.397 73.2673 360.319 73.1719 360.219 73.1158C360.131 73.0485 360.031 73.0092 359.92 72.998C359.82 72.9868 359.726 72.9812 359.637 72.9812H345.358V92.7376H341.032V70.8103C341.032 70.5074 341.087 70.2213 341.198 69.9521C341.309 69.6828 341.459 69.4472 341.647 69.2453C341.847 69.0434 342.08 68.8863 342.346 68.7741C342.612 68.6619 342.901 68.6058 343.212 68.6058H359.637C360.602 68.6058 361.418 68.7853 362.083 69.1443C362.749 69.4921 363.287 69.9353 363.697 70.4738C364.119 71.0011 364.419 71.5732 364.596 72.1903C364.785 72.8073 364.879 73.3851 364.879 73.9236V76.7171Z" fill="black"/>
<path fill-rule="evenodd" clip-rule="evenodd" d="M76.1131 32.3828L51.9158 32.3566L39.2083 32.3429C35.4737 29.6219 30.8532 28.0106 25.8499 28.0051C13.8612 27.9922 4.05029 37.2048 3.35392 48.8298L0.930558 71.201C-1.80067 90.5523 19.2506 96.9939 28.5431 81.3056L35.1661 70.392L51.8746 70.41L79.2157 70.4396L85.6215 82.7303C91.1429 95.6136 115.769 95.9238 113.261 71.6847L111.956 49.4725C111.554 37.6001 101.65 28.0871 89.4808 28.0739C84.4775 28.0685 79.8535 29.6699 76.1131 32.3828ZM89.4627 44.9865C86.9774 44.9838 84.9614 42.9922 84.964 40.5473C84.9667 38.0967 86.987 36.1152 89.4723 36.1179C91.9576 36.1206 93.9736 38.1064 93.971 40.5571C93.9683 43.0078 91.948 44.9892 89.4627 44.9865ZM84.9445 58.4343C84.9418 60.8792 86.9579 62.8708 89.4432 62.8735C91.9284 62.8761 93.9488 60.8947 93.9514 58.4441C93.9541 55.9934 91.938 54.0076 89.4528 54.0049C86.9675 54.0022 84.9471 55.9836 84.9445 58.4343ZM94.042 49.5007C94.0446 47.05 96.065 45.0686 98.5502 45.0712C101.041 45.0739 103.057 47.0597 103.049 49.5104C103.046 51.9611 101.026 53.9425 98.5406 53.9398C96.0554 53.9371 94.0393 51.9513 94.042 49.5007ZM80.3749 45.0516C77.8897 45.0489 75.8693 47.0303 75.8667 49.481C75.864 51.9317 77.8801 53.9175 80.3653 53.9201C82.8506 53.9228 84.871 51.9414 84.8736 49.4907C84.8763 47.0401 82.8602 45.0543 80.3749 45.0516ZM31.0575 51.7653C31.7754 51.7661 32.3581 51.1847 32.3589 50.4667L32.3634 46.2445C32.3642 45.5265 31.7828 44.9439 31.0649 44.9431L26.9849 44.9387C26.267 44.9379 25.6856 44.3553 25.6864 43.6373L25.6908 39.5574C25.6915 38.8394 25.1101 38.2568 24.3922 38.256L20.1991 38.2514C19.4812 38.2507 18.8985 38.8321 18.8977 39.55L18.8933 43.6299C18.8925 44.3479 18.3099 44.9293 17.5919 44.9285L13.4829 44.9241C12.7649 44.9233 12.1822 45.5047 12.1814 46.2227L12.1769 50.4449C12.1761 51.1628 12.7575 51.7455 13.4755 51.7463L17.5845 51.7507C18.3025 51.7515 18.8839 52.3342 18.8831 53.0521L18.8787 57.132C18.8779 57.85 19.4593 58.4327 20.1773 58.4334L24.3703 58.438C25.0883 58.4388 25.671 57.8574 25.6717 57.1394L25.6762 53.0595C25.6769 52.3415 26.2596 51.7601 26.9776 51.7609L31.0575 51.7653Z" fill="black"/>
<path d="M56.9108 33.4089V12C56.9108 6.47715 61.3879 2 66.9108 2H244.911C250.434 2 254.911 6.47715 254.911 12V54" stroke="black" stroke-width="3" stroke-linejoin="round"/>
</svg>
