<svg width="387" height="116" viewBox="0 0 387 116" fill="none" xmlns="http://www.w3.org/2000/svg">
<g filter="url(#filter0_d_333_2943)">
<path d="M164.044 89.1084C164.044 90.0661 163.926 90.9216 163.689 91.6748C163.452 92.428 163.129 93.0951 162.72 93.6762C162.322 94.2465 161.86 94.7361 161.332 95.145C160.805 95.5539 160.251 95.8875 159.67 96.1457C159.099 96.404 158.518 96.5923 157.927 96.7106C157.346 96.829 156.797 96.8882 156.28 96.8882H146.79V92.6916H156.28C156.818 92.6486 157.303 92.541 157.733 92.3688C158.174 92.1859 158.551 91.9438 158.863 91.6425C159.175 91.3412 159.417 90.9807 159.589 90.5611C159.761 90.1307 159.847 89.6464 159.847 89.1084V87.2038C159.794 86.6766 159.681 86.1924 159.508 85.7512C159.336 85.31 159.099 84.9334 158.798 84.6213C158.508 84.3093 158.153 84.0672 157.733 83.895C157.313 83.7121 156.829 83.6206 156.28 83.6206H146.822C146.262 83.6206 145.837 83.7659 145.547 84.0564C145.256 84.347 145.111 84.7666 145.111 85.3154V102.57H140.914V85.3154C140.914 84.2394 141.108 83.3247 141.495 82.5715C141.894 81.8183 142.383 81.2103 142.964 80.7476C143.556 80.2849 144.196 79.9513 144.885 79.7469C145.574 79.5317 146.209 79.4241 146.79 79.4241H156.28C157.227 79.4241 158.077 79.5478 158.83 79.7953C159.584 80.032 160.245 80.3548 160.816 80.7637C161.397 81.1619 161.886 81.6246 162.285 82.1518C162.693 82.6791 163.027 83.2333 163.285 83.8143C163.554 84.3846 163.748 84.9657 163.866 85.5575C163.985 86.1386 164.044 86.6873 164.044 87.2038V89.1084Z" fill="#CC00FF"/>
<path d="M188.9 102.57H169.758C169.456 102.57 169.177 102.516 168.918 102.408C168.66 102.301 168.434 102.155 168.24 101.972C168.058 101.779 167.912 101.553 167.805 101.295C167.697 101.036 167.643 100.757 167.643 100.455V79.4241H171.84V98.3731H188.9V102.57Z" fill="#CC00FF"/>
<path d="M214.693 102.57H210.497V96.8882H195.744V102.57H191.547V90.9969C191.547 89.3075 191.838 87.7526 192.419 86.3322C193 84.9119 193.807 83.6906 194.84 82.6683C195.873 81.6461 197.094 80.8498 198.504 80.2795C199.914 79.7092 201.452 79.4241 203.12 79.4241H212.579C212.869 79.4241 213.144 79.4779 213.402 79.5855C213.66 79.6931 213.886 79.8437 214.08 80.0374C214.273 80.2311 214.424 80.4571 214.532 80.7153C214.639 80.9736 214.693 81.248 214.693 81.5385V102.57ZM195.744 92.6916H210.497V83.6206H203.12C202.991 83.6206 202.717 83.6421 202.297 83.6852C201.888 83.7175 201.409 83.8089 200.861 83.9596C200.323 84.1102 199.752 84.3416 199.15 84.6536C198.547 84.9657 197.993 85.3961 197.487 85.9449C196.981 86.4936 196.562 87.1823 196.228 88.0109C195.905 88.8287 195.744 89.824 195.744 90.9969V92.6916Z" fill="#CC00FF"/>
<path d="M241.632 87.1716C241.632 88.1292 241.508 88.9847 241.26 89.7379C241.024 90.4911 240.706 91.1583 240.308 91.7393C239.91 92.3096 239.442 92.7992 238.904 93.2081C238.377 93.617 237.828 93.956 237.258 94.225C236.687 94.4832 236.106 94.6715 235.514 94.7899C234.933 94.9083 234.385 94.9675 233.868 94.9675H232.173V102.57H227.944V94.9675H226.266C225.749 94.9675 225.195 94.9083 224.603 94.7899C224.022 94.6715 223.441 94.4832 222.86 94.225C222.29 93.956 221.741 93.617 221.214 93.2081C220.687 92.7992 220.219 92.3096 219.81 91.7393C219.411 91.1583 219.089 90.4911 218.841 89.7379C218.604 88.9739 218.486 88.1185 218.486 87.1716V79.4241H222.683V87.1716C222.683 87.7203 222.769 88.2153 222.941 88.6565C223.113 89.0869 223.355 89.4581 223.667 89.7702C223.979 90.0822 224.356 90.3244 224.797 90.4965C225.249 90.6579 225.749 90.7386 226.298 90.7386H233.868C234.266 90.6741 234.675 90.5934 235.095 90.4965C235.514 90.3889 235.896 90.2114 236.241 89.9639C236.585 89.7164 236.87 89.3721 237.096 88.9309C237.322 88.4897 237.435 87.9033 237.435 87.1716V79.4241H241.632V87.1716Z" fill="#CC00FF"/>
<path d="M169.323 63.8326H162.338L151.265 52.8012H147.801V47.8691H151.265L162.338 36.8378H169.323L155.372 50.3352L169.323 63.8326ZM145.832 63.8326H140.911V36.8378H145.832V63.8326Z" fill="#CC00FF"/>
<path d="M177.367 63.8326H172.446V36.8378H177.367V63.8326Z" fill="#CC00FF"/>
<path d="M210.208 52.5377C210.208 54.1817 209.918 55.694 209.338 57.0745C208.77 58.4549 207.981 59.6472 206.972 60.6512C205.962 61.6426 204.763 62.4207 203.375 62.9855C201.987 63.5502 200.479 63.8326 198.851 63.8326H185.563C185.21 63.8326 184.882 63.7698 184.579 63.6443C184.276 63.5188 184.011 63.3494 183.784 63.1361C183.57 62.9102 183.399 62.6466 183.273 62.3454C183.147 62.0442 183.084 61.7179 183.084 61.3665V39.3038C183.084 38.965 183.147 38.645 183.273 38.3438C183.399 38.0426 183.57 37.779 183.784 37.5531C184.011 37.3272 184.276 37.1515 184.579 37.026C184.882 36.9005 185.21 36.8378 185.563 36.8378H198.851C200.479 36.8378 201.987 37.1201 203.375 37.6849C204.763 38.2496 205.962 39.034 206.972 40.038C207.981 41.0294 208.77 42.2217 209.338 43.6147C209.918 44.9952 210.208 46.5012 210.208 48.1327V52.5377ZM205.287 48.1327C205.287 47.1789 205.129 46.3067 204.814 45.516C204.511 44.7254 204.075 44.054 203.508 43.5018C202.94 42.937 202.258 42.504 201.463 42.2028C200.681 41.8891 199.81 41.7322 198.851 41.7322H188.005V58.9381H198.851C199.81 58.9381 200.681 58.7875 201.463 58.4863C202.258 58.1726 202.94 57.7396 203.508 57.1874C204.075 56.6227 204.511 55.9512 204.814 55.1732C205.129 54.3825 205.287 53.504 205.287 52.5377V48.1327Z" fill="#CC00FF"/>
<path d="M241.119 55.8885C241.119 56.8548 240.993 57.7271 240.74 58.5051C240.5 59.2707 240.179 59.9484 239.775 60.5382C239.371 61.1281 238.898 61.6301 238.355 62.0442C237.813 62.4584 237.251 62.7972 236.671 63.0608C236.09 63.3243 235.497 63.5188 234.891 63.6443C234.298 63.7698 233.737 63.8326 233.207 63.8326H214.221V58.9381H233.207C234.153 58.9381 234.885 58.662 235.402 58.1098C235.932 57.5576 236.197 56.8172 236.197 55.8885C236.197 55.4367 236.128 55.0226 235.989 54.6461C235.85 54.2696 235.648 53.9433 235.383 53.6672C235.131 53.3911 234.816 53.1777 234.437 53.0271C234.071 52.8765 233.661 52.8012 233.207 52.8012H221.887C221.092 52.8012 220.234 52.6632 219.313 52.3871C218.392 52.0984 217.534 51.6404 216.739 51.0129C215.956 50.3854 215.3 49.5634 214.77 48.5468C214.253 47.5303 213.994 46.2878 213.994 44.8195C213.994 43.3512 214.253 42.115 214.77 41.111C215.3 40.0945 215.956 39.2724 216.739 38.645C217.534 38.0049 218.392 37.5468 219.313 37.2707C220.234 36.9821 221.092 36.8378 221.887 36.8378H238.639V41.7322H221.887C220.953 41.7322 220.222 42.0146 219.692 42.5793C219.174 43.1441 218.915 43.8908 218.915 44.8195C218.915 45.7607 219.174 46.5075 219.692 47.0597C220.222 47.5993 220.953 47.8691 221.887 47.8691H233.207H233.244C233.774 47.8817 234.336 47.957 234.929 48.095C235.522 48.2205 236.109 48.4213 236.689 48.6974C237.283 48.9735 237.844 49.3249 238.374 49.7516C238.904 50.1657 239.371 50.6677 239.775 51.2576C240.191 51.8474 240.519 52.5251 240.759 53.2907C240.999 54.0562 241.119 54.9222 241.119 55.8885Z" fill="#CC00FF"/>
<path d="M269.056 95.6362C269.056 96.5 268.945 97.2797 268.723 97.9753C268.513 98.6596 268.23 99.2654 267.875 99.7927C267.52 100.32 267.104 100.769 266.627 101.139C266.15 101.509 265.656 101.812 265.146 102.048C264.635 102.283 264.114 102.457 263.581 102.569C263.06 102.682 262.566 102.738 262.1 102.738H245.409V98.3623H262.1C262.932 98.3623 263.576 98.1155 264.031 97.6219C264.497 97.1283 264.73 96.4663 264.73 95.6362C264.73 95.2323 264.668 94.8621 264.546 94.5255C264.424 94.1889 264.247 93.8972 264.014 93.6504C263.792 93.4036 263.515 93.2129 263.182 93.0783C262.86 92.9436 262.5 92.8763 262.1 92.8763H252.148C251.449 92.8763 250.695 92.7529 249.885 92.5061C249.075 92.2481 248.321 91.8386 247.622 91.2776C246.934 90.7167 246.357 89.9819 245.891 89.0731C245.436 88.1644 245.209 87.0537 245.209 85.7411C245.209 84.4285 245.436 83.3235 245.891 82.426C246.357 81.5172 246.934 80.7824 247.622 80.2215C248.321 79.6493 249.075 79.2398 249.885 78.993C250.695 78.735 251.449 78.606 252.148 78.606H266.876V82.9813H252.148C251.327 82.9813 250.684 83.2337 250.218 83.7386C249.763 84.2434 249.536 84.9109 249.536 85.7411C249.536 86.5825 249.763 87.2501 250.218 87.7437C250.684 88.2261 251.327 88.4673 252.148 88.4673H262.1H262.133C262.599 88.4785 263.093 88.5458 263.615 88.6693C264.136 88.7814 264.652 88.9609 265.162 89.2078C265.684 89.4546 266.177 89.7687 266.643 90.1501C267.109 90.5204 267.52 90.9691 267.875 91.4964C268.241 92.0237 268.529 92.6295 268.74 93.3139C268.951 93.9982 269.056 94.7723 269.056 95.6362Z" fill="#CC00FF"/>
<path d="M296.066 102.738H291.739V96.8141H276.528V102.738H272.202V90.6718C272.202 88.9105 272.501 87.2893 273.1 85.8085C273.699 84.3276 274.531 83.0542 275.596 81.9884C276.662 80.9226 277.921 80.0925 279.374 79.4979C280.828 78.9033 282.414 78.606 284.134 78.606H293.886C294.185 78.606 294.468 78.6621 294.734 78.7742C295.001 78.8864 295.234 79.0435 295.433 79.2454C295.633 79.4474 295.788 79.683 295.899 79.9522C296.01 80.2215 296.066 80.5075 296.066 80.8105V102.738ZM276.528 92.4388H291.739V82.9813H284.134C284.001 82.9813 283.718 83.0037 283.285 83.0486C282.863 83.0823 282.37 83.1776 281.804 83.3347C281.249 83.4918 280.661 83.733 280.04 84.0583C279.419 84.3837 278.847 84.8324 278.326 85.4046C277.804 85.9767 277.372 86.6947 277.028 87.5586C276.695 88.4112 276.528 89.449 276.528 90.6718V92.4388Z" fill="#CC00FF"/>
<path d="M320.845 92.8763H307.166V88.4673H320.845V92.8763ZM322.776 82.9813H305.435V102.738H301.108V80.8105C301.108 80.5075 301.164 80.2215 301.275 79.9522C301.385 79.683 301.535 79.4474 301.724 79.2454C301.924 79.0435 302.157 78.8864 302.423 78.7742C302.689 78.6621 302.978 78.606 303.288 78.606H322.776V82.9813Z" fill="#CC00FF"/>
<path d="M345.891 92.8763H332.228V88.4673H345.891V92.8763ZM347.838 102.738H332.228C331.629 102.738 330.974 102.631 330.264 102.418C329.554 102.205 328.894 101.857 328.284 101.375C327.685 100.881 327.18 100.247 326.77 99.473C326.37 98.6877 326.17 97.7285 326.17 96.5954V80.8105C326.17 80.5075 326.226 80.2215 326.337 79.9522C326.448 79.683 326.598 79.4474 326.786 79.2454C326.986 79.0435 327.219 78.8864 327.485 78.7742C327.751 78.6621 328.04 78.606 328.35 78.606H347.838V82.9813H330.497V96.5954C330.497 97.1675 330.647 97.6051 330.947 97.908C331.246 98.2109 331.684 98.3623 332.261 98.3623H347.838V102.738Z" fill="#CC00FF"/>
<path d="M375.879 86.7172C375.879 87.7157 375.757 88.6075 375.513 89.3929C375.269 90.1782 374.936 90.8738 374.514 91.4796C374.104 92.0742 373.627 92.5846 373.083 93.0109C372.54 93.4373 371.968 93.7907 371.369 94.0711C370.781 94.3404 370.182 94.5367 369.572 94.6601C368.973 94.7835 368.407 94.8452 367.874 94.8452L376.911 102.738H370.221L361.201 94.8452H358.089V90.4699H367.874C368.418 90.425 368.912 90.3128 369.355 90.1333C369.81 89.9426 370.199 89.6902 370.52 89.376C370.853 89.0619 371.108 88.6861 371.286 88.2485C371.463 87.7998 371.552 87.2893 371.552 86.7172V83.9573C371.552 83.7105 371.519 83.5254 371.452 83.402C371.397 83.2674 371.319 83.172 371.219 83.1159C371.131 83.0486 371.031 83.0094 370.92 82.9981C370.82 82.9869 370.726 82.9813 370.637 82.9813H356.358V102.738H352.032V80.8105C352.032 80.5075 352.087 80.2215 352.198 79.9522C352.309 79.683 352.459 79.4474 352.647 79.2454C352.847 79.0435 353.08 78.8864 353.346 78.7742C353.612 78.6621 353.901 78.606 354.212 78.606H370.637C371.602 78.606 372.418 78.7855 373.083 79.1445C373.749 79.4922 374.287 79.9354 374.697 80.4739C375.119 81.0012 375.419 81.5733 375.596 82.1904C375.785 82.8074 375.879 83.3852 375.879 83.9237V86.7172Z" fill="#CC00FF"/>
</g>
<g filter="url(#filter1_d_333_2943)">
<path d="M164.044 89.1083C164.044 90.066 163.926 90.9214 163.689 91.6747C163.452 92.4279 163.129 93.095 162.72 93.6761C162.322 94.2464 161.86 94.736 161.332 95.1449C160.805 95.5538 160.251 95.8873 159.67 96.1456C159.099 96.4038 158.518 96.5922 157.927 96.7105C157.346 96.8289 156.797 96.8881 156.28 96.8881H146.79V92.6915H156.28C156.818 92.6485 157.303 92.5409 157.733 92.3687C158.174 92.1858 158.551 91.9437 158.863 91.6424C159.175 91.3411 159.417 90.9806 159.589 90.561C159.761 90.1305 159.847 89.6463 159.847 89.1083V87.2037C159.794 86.6765 159.681 86.1922 159.508 85.7511C159.336 85.3099 159.099 84.9333 158.798 84.6212C158.508 84.3092 158.153 84.0671 157.733 83.8949C157.313 83.712 156.829 83.6205 156.28 83.6205H146.822C146.262 83.6205 145.837 83.7658 145.547 84.0563C145.256 84.3468 145.111 84.7665 145.111 85.3153V102.57H140.914V85.3153C140.914 84.2392 141.108 83.3246 141.495 82.5714C141.894 81.8181 142.383 81.2102 142.964 80.7475C143.556 80.2848 144.196 79.9512 144.885 79.7468C145.574 79.5316 146.209 79.424 146.79 79.424H156.28C157.227 79.424 158.077 79.5477 158.83 79.7952C159.584 80.0319 160.245 80.3547 160.816 80.7636C161.397 81.1618 161.886 81.6244 162.285 82.1517C162.693 82.679 163.027 83.2331 163.285 83.8142C163.554 84.3845 163.748 84.9656 163.866 85.5574C163.985 86.1384 164.044 86.6872 164.044 87.2037V89.1083Z" fill="#CC00FF"/>
<path d="M188.9 102.57H169.758C169.456 102.57 169.177 102.516 168.918 102.408C168.66 102.301 168.434 102.155 168.24 101.972C168.058 101.779 167.912 101.553 167.805 101.294C167.697 101.036 167.643 100.756 167.643 100.455V79.424H171.84V98.373H188.9V102.57Z" fill="#CC00FF"/>
<path d="M214.693 102.57H210.497V96.8881H195.744V102.57H191.547V90.9968C191.547 89.3074 191.838 87.7525 192.419 86.3321C193 84.9118 193.807 83.6904 194.84 82.6682C195.873 81.646 197.094 80.8497 198.504 80.2794C199.914 79.7091 201.452 79.424 203.12 79.424H212.579C212.869 79.424 213.144 79.4778 213.402 79.5854C213.66 79.693 213.886 79.8436 214.08 80.0373C214.273 80.231 214.424 80.4569 214.532 80.7152C214.639 80.9734 214.693 81.2478 214.693 81.5384V102.57ZM195.744 92.6915H210.497V83.6205H203.12C202.991 83.6205 202.717 83.642 202.297 83.6851C201.888 83.7173 201.409 83.8088 200.861 83.9595C200.323 84.1101 199.752 84.3414 199.15 84.6535C198.547 84.9656 197.993 85.396 197.487 85.9447C196.981 86.4935 196.562 87.1822 196.228 88.0107C195.905 88.8285 195.744 89.8239 195.744 90.9968V92.6915Z" fill="#CC00FF"/>
<path d="M241.632 87.1714C241.632 88.1291 241.508 88.9846 241.26 89.7378C241.024 90.491 240.706 91.1582 240.308 91.7392C239.91 92.3095 239.442 92.7991 238.904 93.208C238.377 93.6169 237.828 93.9559 237.258 94.2249C236.687 94.4831 236.106 94.6714 235.514 94.7898C234.933 94.9082 234.385 94.9673 233.868 94.9673H232.173V102.57H227.944V94.9673H226.266C225.749 94.9673 225.195 94.9082 224.603 94.7898C224.022 94.6714 223.441 94.4831 222.86 94.2249C222.29 93.9559 221.741 93.6169 221.214 93.208C220.687 92.7991 220.219 92.3095 219.81 91.7392C219.411 91.1582 219.089 90.491 218.841 89.7378C218.604 88.9738 218.486 88.1183 218.486 87.1714V79.424H222.683V87.1714C222.683 87.7202 222.769 88.2152 222.941 88.6564C223.113 89.0868 223.355 89.458 223.667 89.7701C223.979 90.0821 224.356 90.3242 224.797 90.4964C225.249 90.6578 225.749 90.7385 226.298 90.7385H233.868C234.266 90.6739 234.675 90.5932 235.095 90.4964C235.514 90.3888 235.896 90.2112 236.241 89.9638C236.585 89.7163 236.87 89.3719 237.096 88.9308C237.322 88.4896 237.435 87.9031 237.435 87.1714V79.424H241.632V87.1714Z" fill="#CC00FF"/>
<path d="M169.323 63.8324H162.338L151.265 52.8011H147.801V47.869H151.265L162.338 36.8376H169.323L155.372 50.335L169.323 63.8324ZM145.832 63.8324H140.911V36.8376H145.832V63.8324Z" fill="#CC00FF"/>
<path d="M177.367 63.8324H172.446V36.8376H177.367V63.8324Z" fill="#CC00FF"/>
<path d="M210.208 52.5376C210.208 54.1816 209.918 55.6938 209.338 57.0743C208.77 58.4548 207.981 59.6471 206.972 60.6511C205.962 61.6425 204.763 62.4206 203.375 62.9853C201.987 63.5501 200.479 63.8324 198.851 63.8324H185.563C185.21 63.8324 184.882 63.7697 184.579 63.6442C184.276 63.5187 184.011 63.3493 183.784 63.1359C183.57 62.91 183.399 62.6465 183.273 62.3453C183.147 62.0441 183.084 61.7178 183.084 61.3664V39.3037C183.084 38.9649 183.147 38.6448 183.273 38.3436C183.399 38.0424 183.57 37.7789 183.784 37.553C184.011 37.3271 184.276 37.1514 184.579 37.0259C184.882 36.9004 185.21 36.8376 185.563 36.8376H198.851C200.479 36.8376 201.987 37.12 203.375 37.6848C204.763 38.2495 205.962 39.0339 206.972 40.0379C207.981 41.0293 208.77 42.2215 209.338 43.6146C209.918 44.9951 210.208 46.5011 210.208 48.1325V52.5376ZM205.287 48.1325C205.287 47.1788 205.129 46.3065 204.814 45.5159C204.511 44.7252 204.075 44.0538 203.508 43.5016C202.94 42.9369 202.258 42.5039 201.463 42.2027C200.681 41.889 199.81 41.7321 198.851 41.7321H188.005V58.938H198.851C199.81 58.938 200.681 58.7874 201.463 58.4862C202.258 58.1725 202.94 57.7395 203.508 57.1873C204.075 56.6225 204.511 55.9511 204.814 55.173C205.129 54.3824 205.287 53.5039 205.287 52.5376V48.1325Z" fill="#CC00FF"/>
<path d="M241.119 55.8884C241.119 56.8547 240.993 57.7269 240.74 58.505C240.5 59.2706 240.179 59.9483 239.775 60.5381C239.371 61.1279 238.898 61.6299 238.355 62.0441C237.813 62.4582 237.251 62.7971 236.671 63.0606C236.09 63.3242 235.497 63.5187 234.891 63.6442C234.298 63.7697 233.737 63.8324 233.207 63.8324H214.221V58.938H233.207C234.153 58.938 234.885 58.6619 235.402 58.1097C235.932 57.5575 236.197 56.8171 236.197 55.8884C236.197 55.4366 236.128 55.0224 235.989 54.6459C235.85 54.2694 235.648 53.9431 235.383 53.667C235.131 53.3909 234.816 53.1776 234.437 53.027C234.071 52.8764 233.661 52.8011 233.207 52.8011H221.887C221.092 52.8011 220.234 52.6631 219.313 52.387C218.392 52.0983 217.534 51.6402 216.739 51.0127C215.956 50.3852 215.3 49.5632 214.77 48.5467C214.253 47.5301 213.994 46.2877 213.994 44.8194C213.994 43.351 214.253 42.1149 214.77 41.1109C215.3 40.0943 215.956 39.2723 216.739 38.6448C217.534 38.0048 218.392 37.5467 219.313 37.2706C220.234 36.982 221.092 36.8376 221.887 36.8376H238.639V41.7321H221.887C220.953 41.7321 220.222 42.0145 219.692 42.5792C219.174 43.144 218.915 43.8907 218.915 44.8194C218.915 45.7606 219.174 46.5073 219.692 47.0595C220.222 47.5992 220.953 47.869 221.887 47.869H233.207H233.244C233.774 47.8815 234.336 47.9568 234.929 48.0949C235.522 48.2204 236.109 48.4212 236.689 48.6973C237.283 48.9734 237.844 49.3248 238.374 49.7515C238.904 50.1656 239.371 50.6676 239.775 51.2575C240.191 51.8473 240.519 52.525 240.759 53.2905C240.999 54.0561 241.119 54.922 241.119 55.8884Z" fill="#CC00FF"/>
<path d="M269.056 95.636C269.056 96.4999 268.945 97.2796 268.723 97.9752C268.513 98.6595 268.23 99.2653 267.875 99.7926C267.52 100.32 267.104 100.769 266.627 101.139C266.15 101.509 265.656 101.812 265.146 102.048C264.635 102.283 264.114 102.457 263.581 102.569C263.06 102.681 262.566 102.738 262.1 102.738H245.409V98.3622H262.1C262.932 98.3622 263.576 98.1154 264.031 97.6218C264.497 97.1281 264.73 96.4662 264.73 95.636C264.73 95.2322 264.668 94.8619 264.546 94.5254C264.424 94.1888 264.247 93.8971 264.014 93.6503C263.792 93.4035 263.515 93.2128 263.182 93.0781C262.86 92.9435 262.5 92.8762 262.1 92.8762H252.148C251.449 92.8762 250.695 92.7528 249.885 92.506C249.075 92.2479 248.321 91.8385 247.622 91.2775C246.934 90.7166 246.357 89.9817 245.891 89.073C245.436 88.1643 245.209 87.0536 245.209 85.741C245.209 84.4284 245.436 83.3234 245.891 82.4258C246.357 81.5171 246.934 80.7823 247.622 80.2213C248.321 79.6492 249.075 79.2397 249.885 78.9929C250.695 78.7349 251.449 78.6058 252.148 78.6058H266.876V82.9812H252.148C251.327 82.9812 250.684 83.2336 250.218 83.7385C249.763 84.2433 249.536 84.9108 249.536 85.741C249.536 86.5824 249.763 87.2499 250.218 87.7436C250.684 88.226 251.327 88.4672 252.148 88.4672H262.1H262.133C262.599 88.4784 263.093 88.5457 263.615 88.6691C264.136 88.7813 264.652 88.9608 265.162 89.2076C265.684 89.4545 266.177 89.7686 266.643 90.15C267.109 90.5202 267.52 90.969 267.875 91.4963C268.241 92.0236 268.529 92.6294 268.74 93.3137C268.951 93.9981 269.056 94.7722 269.056 95.636Z" fill="#CC00FF"/>
<path d="M296.066 102.738H291.739V96.814H276.528V102.738H272.202V90.6717C272.202 88.9103 272.501 87.2892 273.1 85.8083C273.699 84.3274 274.531 83.0541 275.596 81.9883C276.662 80.9225 277.921 80.0923 279.374 79.4977C280.828 78.9031 282.414 78.6058 284.134 78.6058H293.886C294.185 78.6058 294.468 78.6619 294.734 78.7741C295.001 78.8863 295.234 79.0434 295.433 79.2453C295.633 79.4472 295.788 79.6828 295.899 79.9521C296.01 80.2213 296.066 80.5074 296.066 80.8103V102.738ZM276.528 92.4387H291.739V82.9812H284.134C284.001 82.9812 283.718 83.0036 283.285 83.0485C282.863 83.0822 282.37 83.1775 281.804 83.3346C281.249 83.4916 280.661 83.7328 280.04 84.0582C279.419 84.3835 278.847 84.8323 278.326 85.4044C277.804 85.9766 277.372 86.6946 277.028 87.5585C276.695 88.4111 276.528 89.4488 276.528 90.6717V92.4387Z" fill="#CC00FF"/>
<path d="M320.845 92.8762H307.166V88.4672H320.845V92.8762ZM322.776 82.9812H305.435V102.738H301.108V80.8103C301.108 80.5074 301.164 80.2213 301.275 79.9521C301.385 79.6828 301.535 79.4472 301.724 79.2453C301.924 79.0434 302.157 78.8863 302.423 78.7741C302.689 78.6619 302.978 78.6058 303.288 78.6058H322.776V82.9812Z" fill="#CC00FF"/>
<path d="M345.891 92.8762H332.228V88.4672H345.891V92.8762ZM347.838 102.738H332.228C331.629 102.738 330.974 102.631 330.264 102.418C329.554 102.205 328.894 101.857 328.284 101.374C327.685 100.881 327.18 100.247 326.77 99.4729C326.37 98.6876 326.17 97.7283 326.17 96.5952V80.8103C326.17 80.5074 326.226 80.2213 326.337 79.9521C326.448 79.6828 326.598 79.4472 326.786 79.2453C326.986 79.0434 327.219 78.8863 327.485 78.7741C327.751 78.6619 328.04 78.6058 328.35 78.6058H347.838V82.9812H330.497V96.5952C330.497 97.1674 330.647 97.6049 330.947 97.9078C331.246 98.2108 331.684 98.3622 332.261 98.3622H347.838V102.738Z" fill="#CC00FF"/>
<path d="M375.879 86.7171C375.879 87.7155 375.757 88.6074 375.513 89.3927C375.269 90.1781 374.936 90.8736 374.514 91.4795C374.104 92.074 373.627 92.5845 373.083 93.0108C372.54 93.4371 371.968 93.7905 371.369 94.071C370.781 94.3403 370.182 94.5366 369.572 94.66C368.973 94.7834 368.407 94.8451 367.874 94.8451L376.911 102.738H370.221L361.201 94.8451H358.089V90.4698H367.874C368.418 90.4249 368.912 90.3127 369.355 90.1332C369.81 89.9425 370.199 89.69 370.52 89.3759C370.853 89.0618 371.108 88.686 371.286 88.2484C371.463 87.7997 371.552 87.2892 371.552 86.7171V83.9572C371.552 83.7104 371.519 83.5253 371.452 83.4019C371.397 83.2673 371.319 83.1719 371.219 83.1158C371.131 83.0485 371.031 83.0092 370.92 82.998C370.82 82.9868 370.726 82.9812 370.637 82.9812H356.358V102.738H352.032V80.8103C352.032 80.5074 352.087 80.2213 352.198 79.9521C352.309 79.6828 352.459 79.4472 352.647 79.2453C352.847 79.0434 353.08 78.8863 353.346 78.7741C353.612 78.6619 353.901 78.6058 354.212 78.6058H370.637C371.602 78.6058 372.418 78.7853 373.083 79.1443C373.749 79.4921 374.287 79.9353 374.697 80.4738C375.119 81.0011 375.419 81.5732 375.596 82.1903C375.785 82.8073 375.879 83.3851 375.879 83.9236V86.7171Z" fill="#CC00FF"/>
</g>
<path d="M164.044 89.1084C164.044 90.0661 163.926 90.9216 163.689 91.6748C163.452 92.428 163.129 93.0951 162.72 93.6762C162.322 94.2465 161.86 94.7361 161.332 95.145C160.805 95.5539 160.251 95.8875 159.67 96.1457C159.099 96.404 158.518 96.5923 157.927 96.7106C157.346 96.829 156.797 96.8882 156.28 96.8882H146.79V92.6916H156.28C156.818 92.6486 157.303 92.541 157.733 92.3688C158.174 92.1859 158.551 91.9438 158.863 91.6425C159.175 91.3412 159.417 90.9807 159.589 90.5611C159.761 90.1307 159.847 89.6464 159.847 89.1084V87.2038C159.794 86.6766 159.681 86.1924 159.508 85.7512C159.336 85.31 159.099 84.9334 158.798 84.6213C158.508 84.3093 158.153 84.0672 157.733 83.895C157.313 83.7121 156.829 83.6206 156.28 83.6206H146.822C146.262 83.6206 145.837 83.7659 145.547 84.0564C145.256 84.347 145.111 84.7666 145.111 85.3154V102.57H140.914V85.3154C140.914 84.2394 141.108 83.3247 141.495 82.5715C141.894 81.8183 142.383 81.2103 142.964 80.7476C143.556 80.2849 144.196 79.9513 144.885 79.7469C145.574 79.5317 146.209 79.4241 146.79 79.4241H156.28C157.227 79.4241 158.077 79.5478 158.83 79.7953C159.584 80.032 160.245 80.3548 160.816 80.7637C161.397 81.1619 161.886 81.6246 162.285 82.1518C162.693 82.6791 163.027 83.2333 163.285 83.8143C163.554 84.3846 163.748 84.9657 163.866 85.5575C163.985 86.1386 164.044 86.6873 164.044 87.2038V89.1084Z" fill="white"/>
<path d="M188.9 102.57H169.758C169.456 102.57 169.177 102.516 168.918 102.408C168.66 102.301 168.434 102.155 168.24 101.972C168.058 101.779 167.912 101.553 167.805 101.295C167.697 101.036 167.643 100.757 167.643 100.455V79.4241H171.84V98.3731H188.9V102.57Z" fill="white"/>
<path d="M214.693 102.57H210.497V96.8882H195.744V102.57H191.547V90.9969C191.547 89.3075 191.838 87.7526 192.419 86.3322C193 84.9119 193.807 83.6906 194.84 82.6683C195.873 81.6461 197.094 80.8498 198.504 80.2795C199.914 79.7092 201.452 79.4241 203.12 79.4241H212.579C212.869 79.4241 213.144 79.4779 213.402 79.5855C213.66 79.6931 213.886 79.8437 214.08 80.0374C214.273 80.2311 214.424 80.4571 214.532 80.7153C214.639 80.9736 214.693 81.248 214.693 81.5385V102.57ZM195.744 92.6916H210.497V83.6206H203.12C202.991 83.6206 202.717 83.6421 202.297 83.6852C201.888 83.7175 201.409 83.8089 200.861 83.9596C200.323 84.1102 199.752 84.3416 199.15 84.6536C198.547 84.9657 197.993 85.3961 197.487 85.9449C196.981 86.4936 196.562 87.1823 196.228 88.0109C195.905 88.8287 195.744 89.824 195.744 90.9969V92.6916Z" fill="white"/>
<path d="M241.632 87.1716C241.632 88.1292 241.508 88.9847 241.26 89.7379C241.024 90.4911 240.706 91.1583 240.308 91.7393C239.91 92.3096 239.442 92.7992 238.904 93.2081C238.377 93.617 237.828 93.956 237.258 94.225C236.687 94.4832 236.106 94.6715 235.514 94.7899C234.933 94.9083 234.385 94.9675 233.868 94.9675H232.173V102.57H227.944V94.9675H226.266C225.749 94.9675 225.195 94.9083 224.603 94.7899C224.022 94.6715 223.441 94.4832 222.86 94.225C222.29 93.956 221.741 93.617 221.214 93.2081C220.687 92.7992 220.219 92.3096 219.81 91.7393C219.411 91.1583 219.089 90.4911 218.841 89.7379C218.604 88.9739 218.486 88.1185 218.486 87.1716V79.4241H222.683V87.1716C222.683 87.7203 222.769 88.2153 222.941 88.6565C223.113 89.0869 223.355 89.4581 223.667 89.7702C223.979 90.0822 224.356 90.3244 224.797 90.4965C225.249 90.6579 225.749 90.7386 226.298 90.7386H233.868C234.266 90.6741 234.675 90.5934 235.095 90.4965C235.514 90.3889 235.896 90.2114 236.241 89.9639C236.585 89.7164 236.87 89.3721 237.096 88.9309C237.322 88.4897 237.435 87.9033 237.435 87.1716V79.4241H241.632V87.1716Z" fill="white"/>
<path d="M169.323 63.8326H162.338L151.265 52.8012H147.801V47.8691H151.265L162.338 36.8378H169.323L155.372 50.3352L169.323 63.8326ZM145.832 63.8326H140.911V36.8378H145.832V63.8326Z" fill="white"/>
<path d="M177.367 63.8326H172.446V36.8378H177.367V63.8326Z" fill="white"/>
<path d="M210.208 52.5377C210.208 54.1817 209.918 55.694 209.338 57.0745C208.77 58.4549 207.981 59.6472 206.972 60.6512C205.962 61.6426 204.763 62.4207 203.375 62.9855C201.987 63.5502 200.479 63.8326 198.851 63.8326H185.563C185.21 63.8326 184.882 63.7698 184.579 63.6443C184.276 63.5188 184.011 63.3494 183.784 63.1361C183.57 62.9102 183.399 62.6466 183.273 62.3454C183.147 62.0442 183.084 61.7179 183.084 61.3665V39.3038C183.084 38.965 183.147 38.645 183.273 38.3438C183.399 38.0426 183.57 37.779 183.784 37.5531C184.011 37.3272 184.276 37.1515 184.579 37.026C184.882 36.9005 185.21 36.8378 185.563 36.8378H198.851C200.479 36.8378 201.987 37.1201 203.375 37.6849C204.763 38.2496 205.962 39.034 206.972 40.038C207.981 41.0294 208.77 42.2217 209.338 43.6147C209.918 44.9952 210.208 46.5012 210.208 48.1327V52.5377ZM205.287 48.1327C205.287 47.1789 205.129 46.3067 204.814 45.516C204.511 44.7254 204.075 44.054 203.508 43.5018C202.94 42.937 202.258 42.504 201.463 42.2028C200.681 41.8891 199.81 41.7322 198.851 41.7322H188.005V58.9381H198.851C199.81 58.9381 200.681 58.7875 201.463 58.4863C202.258 58.1726 202.94 57.7396 203.508 57.1874C204.075 56.6227 204.511 55.9512 204.814 55.1732C205.129 54.3825 205.287 53.504 205.287 52.5377V48.1327Z" fill="white"/>
<path d="M241.119 55.8885C241.119 56.8548 240.993 57.7271 240.74 58.5051C240.5 59.2707 240.179 59.9484 239.775 60.5382C239.371 61.1281 238.898 61.6301 238.355 62.0442C237.813 62.4584 237.251 62.7972 236.671 63.0608C236.09 63.3243 235.497 63.5188 234.891 63.6443C234.298 63.7698 233.737 63.8326 233.207 63.8326H214.221V58.9381H233.207C234.153 58.9381 234.885 58.662 235.402 58.1098C235.932 57.5576 236.197 56.8172 236.197 55.8885C236.197 55.4367 236.128 55.0226 235.989 54.6461C235.85 54.2696 235.648 53.9433 235.383 53.6672C235.131 53.3911 234.816 53.1777 234.437 53.0271C234.071 52.8765 233.661 52.8012 233.207 52.8012H221.887C221.092 52.8012 220.234 52.6632 219.313 52.3871C218.392 52.0984 217.534 51.6404 216.739 51.0129C215.956 50.3854 215.3 49.5634 214.77 48.5468C214.253 47.5303 213.994 46.2878 213.994 44.8195C213.994 43.3512 214.253 42.115 214.77 41.111C215.3 40.0945 215.956 39.2724 216.739 38.645C217.534 38.0049 218.392 37.5468 219.313 37.2707C220.234 36.9821 221.092 36.8378 221.887 36.8378H238.639V41.7322H221.887C220.953 41.7322 220.222 42.0146 219.692 42.5793C219.174 43.1441 218.915 43.8908 218.915 44.8195C218.915 45.7607 219.174 46.5075 219.692 47.0597C220.222 47.5993 220.953 47.8691 221.887 47.8691H233.207H233.244C233.774 47.8817 234.336 47.957 234.929 48.095C235.522 48.2205 236.109 48.4213 236.689 48.6974C237.283 48.9735 237.844 49.3249 238.374 49.7516C238.904 50.1657 239.371 50.6677 239.775 51.2576C240.191 51.8474 240.519 52.5251 240.759 53.2907C240.999 54.0562 241.119 54.9222 241.119 55.8885Z" fill="white"/>
<path d="M269.056 95.6362C269.056 96.5 268.945 97.2797 268.723 97.9753C268.513 98.6596 268.23 99.2654 267.875 99.7927C267.52 100.32 267.104 100.769 266.627 101.139C266.15 101.509 265.656 101.812 265.146 102.048C264.635 102.283 264.114 102.457 263.581 102.569C263.06 102.682 262.566 102.738 262.1 102.738H245.409V98.3623H262.1C262.932 98.3623 263.576 98.1155 264.031 97.6219C264.497 97.1283 264.73 96.4663 264.73 95.6362C264.73 95.2323 264.668 94.8621 264.546 94.5255C264.424 94.1889 264.247 93.8972 264.014 93.6504C263.792 93.4036 263.515 93.2129 263.182 93.0783C262.86 92.9436 262.5 92.8763 262.1 92.8763H252.148C251.449 92.8763 250.695 92.7529 249.885 92.5061C249.075 92.2481 248.321 91.8386 247.622 91.2776C246.934 90.7167 246.357 89.9819 245.891 89.0731C245.436 88.1644 245.209 87.0537 245.209 85.7411C245.209 84.4285 245.436 83.3235 245.891 82.426C246.357 81.5172 246.934 80.7824 247.622 80.2215C248.321 79.6493 249.075 79.2398 249.885 78.993C250.695 78.735 251.449 78.606 252.148 78.606H266.876V82.9813H252.148C251.327 82.9813 250.684 83.2337 250.218 83.7386C249.763 84.2434 249.536 84.9109 249.536 85.7411C249.536 86.5825 249.763 87.2501 250.218 87.7437C250.684 88.2261 251.327 88.4673 252.148 88.4673H262.1H262.133C262.599 88.4785 263.093 88.5458 263.615 88.6693C264.136 88.7814 264.652 88.9609 265.162 89.2078C265.684 89.4546 266.177 89.7687 266.643 90.1501C267.109 90.5204 267.52 90.9691 267.875 91.4964C268.241 92.0237 268.529 92.6295 268.74 93.3139C268.951 93.9982 269.056 94.7723 269.056 95.6362Z" fill="white"/>
<path d="M296.066 102.738H291.739V96.8141H276.528V102.738H272.202V90.6718C272.202 88.9105 272.501 87.2893 273.1 85.8085C273.699 84.3276 274.531 83.0542 275.596 81.9884C276.662 80.9226 277.921 80.0925 279.374 79.4979C280.828 78.9033 282.414 78.606 284.134 78.606H293.886C294.185 78.606 294.468 78.6621 294.734 78.7742C295.001 78.8864 295.234 79.0435 295.433 79.2454C295.633 79.4474 295.788 79.683 295.899 79.9522C296.01 80.2215 296.066 80.5075 296.066 80.8105V102.738ZM276.528 92.4388H291.739V82.9813H284.134C284.001 82.9813 283.718 83.0037 283.285 83.0486C282.863 83.0823 282.37 83.1776 281.804 83.3347C281.249 83.4918 280.661 83.733 280.04 84.0583C279.419 84.3837 278.847 84.8324 278.326 85.4046C277.804 85.9767 277.372 86.6947 277.028 87.5586C276.695 88.4112 276.528 89.449 276.528 90.6718V92.4388Z" fill="white"/>
<path d="M320.845 92.8763H307.166V88.4673H320.845V92.8763ZM322.776 82.9813H305.435V102.738H301.108V80.8105C301.108 80.5075 301.164 80.2215 301.275 79.9522C301.385 79.683 301.535 79.4474 301.724 79.2454C301.924 79.0435 302.157 78.8864 302.423 78.7742C302.689 78.6621 302.978 78.606 303.288 78.606H322.776V82.9813Z" fill="white"/>
<path d="M345.891 92.8763H332.228V88.4673H345.891V92.8763ZM347.838 102.738H332.228C331.629 102.738 330.974 102.631 330.264 102.418C329.554 102.205 328.894 101.857 328.284 101.375C327.685 100.881 327.18 100.247 326.77 99.473C326.37 98.6877 326.17 97.7285 326.17 96.5954V80.8105C326.17 80.5075 326.226 80.2215 326.337 79.9522C326.448 79.683 326.598 79.4474 326.786 79.2454C326.986 79.0435 327.219 78.8864 327.485 78.7742C327.751 78.6621 328.04 78.606 328.35 78.606H347.838V82.9813H330.497V96.5954C330.497 97.1675 330.647 97.6051 330.947 97.908C331.246 98.2109 331.684 98.3623 332.261 98.3623H347.838V102.738Z" fill="white"/>
<path d="M375.879 86.7172C375.879 87.7157 375.757 88.6075 375.513 89.3929C375.269 90.1782 374.936 90.8738 374.514 91.4796C374.104 92.0742 373.627 92.5846 373.083 93.0109C372.54 93.4373 371.968 93.7907 371.369 94.0711C370.781 94.3404 370.182 94.5367 369.572 94.6601C368.973 94.7835 368.407 94.8452 367.874 94.8452L376.911 102.738H370.221L361.201 94.8452H358.089V90.4699H367.874C368.418 90.425 368.912 90.3128 369.355 90.1333C369.81 89.9426 370.199 89.6902 370.52 89.376C370.853 89.0619 371.108 88.6861 371.286 88.2485C371.463 87.7998 371.552 87.2893 371.552 86.7172V83.9573C371.552 83.7105 371.519 83.5254 371.452 83.402C371.397 83.2674 371.319 83.172 371.219 83.1159C371.131 83.0486 371.031 83.0094 370.92 82.9981C370.82 82.9869 370.726 82.9813 370.637 82.9813H356.358V102.738H352.032V80.8105C352.032 80.5075 352.087 80.2215 352.198 79.9522C352.309 79.683 352.459 79.4474 352.647 79.2454C352.847 79.0435 353.08 78.8864 353.346 78.7742C353.612 78.6621 353.901 78.606 354.212 78.606H370.637C371.602 78.606 372.418 78.7855 373.083 79.1445C373.749 79.4922 374.287 79.9354 374.697 80.4739C375.119 81.0012 375.419 81.5733 375.596 82.1904C375.785 82.8074 375.879 83.3852 375.879 83.9237V86.7172Z" fill="white"/>
<g opacity="0.5" filter="url(#filter2_df_333_2943)">
<path fill-rule="evenodd" clip-rule="evenodd" d="M86.636 40.8823C90.5527 38.1626 95.3319 36.5684 100.483 36.574C113.434 36.588 124.016 46.7136 124.455 59.4042L125.756 81.5637C127.032 93.9806 122.85 102.172 116.402 104.918C109.906 107.685 102.133 104.501 97.2602 96.2941C97.2544 96.2844 97.2487 96.2746 97.2432 96.2647C97.2387 96.2568 97.2343 96.2488 97.23 96.2408L89.511 81.9389L62.8732 81.91L47.0101 81.8929L40.8314 92.0742C40.8305 92.0758 40.8296 92.0773 40.8286 92.0789C35.8754 100.376 27.3788 103.404 20.4443 101.305C16.9766 100.256 13.956 97.9298 12.0706 94.4344C10.1938 90.955 9.49356 86.4184 10.4449 80.99L12.859 58.7036C13.6222 46.2869 24.0977 36.4914 36.8518 36.5052C42.0025 36.5108 46.7782 38.1153 50.689 40.8434L62.9176 40.8567L86.636 40.8823ZM100.479 39.574C95.8018 39.5689 91.4851 41.065 87.994 43.5971C87.7375 43.7831 87.4286 43.8832 87.1117 43.8828L62.9143 43.8567L50.2068 43.8429C49.8899 43.8426 49.5813 43.7419 49.3251 43.5553C45.8395 41.0157 41.5261 39.5102 36.8485 39.5052C25.6376 39.4931 16.4993 48.1036 15.8515 58.9196C15.85 58.9436 15.848 58.9676 15.8454 58.9915L13.4221 81.3626C13.4184 81.396 13.4137 81.4293 13.4078 81.4624C12.5364 86.3873 13.2109 90.2291 14.7109 93.0101C16.2081 95.7858 18.5795 97.6064 21.3134 98.4339C26.7811 100.089 33.9248 97.7949 38.2551 90.5371L38.2609 90.5274L38.2609 90.5274L44.884 79.6138C45.1563 79.1651 45.6432 78.8914 46.168 78.892L62.8764 78.9101L90.4081 78.9398C90.9589 78.9404 91.465 79.2428 91.7265 79.7274L99.8552 94.7885C104.232 102.14 110.558 104.146 115.227 102.158C119.943 100.15 123.99 93.6426 122.769 81.8391C122.767 81.817 122.765 81.7949 122.763 81.7727L121.459 59.5616C121.458 59.5492 121.457 59.5368 121.457 59.5243C121.084 48.4779 111.859 39.5863 100.479 39.574Z" fill="#CC00FF"/>
<path d="M95.9641 50.5473C95.9614 52.9922 97.9775 54.9838 100.463 54.9865C102.948 54.9891 104.968 53.0077 104.971 50.5571C104.974 48.1064 102.958 46.1206 100.472 46.1179C97.9871 46.1152 95.9667 48.0966 95.9641 50.5473Z" fill="#CC00FF"/>
<path d="M95.9447 68.4344C95.942 70.8793 97.9581 72.8709 100.443 72.8735C102.929 72.8762 104.949 70.8948 104.952 68.4441C104.954 65.9935 102.938 64.0077 100.453 64.005C97.9677 64.0023 95.9473 65.9837 95.9447 68.4344Z" fill="#CC00FF"/>
<path d="M109.55 55.0713C107.065 55.0686 105.045 57.05 105.042 59.5007C105.039 61.9514 107.055 63.9371 109.541 63.9398C112.026 63.9425 114.046 61.9611 114.049 59.5104C114.057 57.0598 112.041 55.074 109.55 55.0713Z" fill="#CC00FF"/>
<path d="M91.3749 55.0516C88.8897 55.0489 86.8693 57.0304 86.8667 59.481C86.864 61.9317 88.8801 63.9175 91.3653 63.9202C93.8506 63.9229 95.871 61.9414 95.8736 59.4908C95.8763 57.0401 93.8602 55.0543 91.3749 55.0516Z" fill="#CC00FF"/>
<path d="M43.359 60.4667C43.3582 61.1847 42.7755 61.7661 42.0576 61.7653L37.9777 61.7609C37.2597 61.7601 36.677 62.3415 36.6763 63.0595L36.6719 67.1394C36.6711 67.8574 36.0884 68.4388 35.3704 68.438L31.1774 68.4335C30.4594 68.4327 29.878 67.85 29.8788 67.1321L29.8832 63.0521C29.884 62.3342 29.3026 61.7515 28.5846 61.7507L24.4756 61.7463C23.7576 61.7455 23.1762 61.1629 23.177 60.4449L23.1816 56.2227C23.1823 55.5047 23.765 54.9233 24.483 54.9241L28.592 54.9286C29.31 54.9293 29.8927 54.3479 29.8934 53.63L29.8978 49.5501C29.8986 48.8321 30.4813 48.2507 31.1992 48.2515L35.3923 48.256C36.1102 48.2568 36.6916 48.8394 36.6909 49.5574L36.6865 53.6373C36.6857 54.3553 37.2671 54.9379 37.9851 54.9387L42.065 54.9431C42.7829 54.9439 43.3643 55.5266 43.3636 56.2445L43.359 60.4667Z" fill="#CC00FF"/>
</g>
<g opacity="0.5" filter="url(#filter3_df_333_2943)">
<path fill-rule="evenodd" clip-rule="evenodd" d="M86.636 40.8823C90.5527 38.1626 95.3319 36.5684 100.483 36.574C113.434 36.588 124.016 46.7136 124.455 59.4042L125.756 81.5637C127.032 93.9806 122.85 102.172 116.402 104.918C109.906 107.685 102.133 104.501 97.2602 96.2941C97.2544 96.2844 97.2487 96.2746 97.2432 96.2647C97.2387 96.2568 97.2343 96.2488 97.23 96.2408L89.511 81.9389L62.8732 81.91L47.0101 81.8929L40.8314 92.0742C40.8305 92.0758 40.8296 92.0773 40.8286 92.0789C35.8754 100.376 27.3788 103.404 20.4443 101.305C16.9766 100.256 13.956 97.9298 12.0706 94.4344C10.1938 90.955 9.49356 86.4184 10.4449 80.99L12.859 58.7036C13.6222 46.2869 24.0977 36.4914 36.8518 36.5052C42.0025 36.5108 46.7782 38.1153 50.689 40.8434L62.9176 40.8567L86.636 40.8823ZM100.479 39.574C95.8018 39.5689 91.4851 41.065 87.994 43.5971C87.7375 43.7831 87.4286 43.8832 87.1117 43.8828L62.9143 43.8567L50.2068 43.8429C49.8899 43.8426 49.5813 43.7419 49.3251 43.5553C45.8395 41.0157 41.5261 39.5102 36.8485 39.5052C25.6376 39.4931 16.4993 48.1036 15.8515 58.9196C15.85 58.9436 15.848 58.9676 15.8454 58.9915L13.4221 81.3626C13.4184 81.396 13.4137 81.4293 13.4078 81.4624C12.5364 86.3873 13.2109 90.2291 14.7109 93.0101C16.2081 95.7858 18.5795 97.6064 21.3134 98.4339C26.7811 100.089 33.9248 97.7949 38.2551 90.5371L38.2609 90.5274L38.2609 90.5274L44.884 79.6138C45.1563 79.1651 45.6432 78.8914 46.168 78.892L62.8764 78.9101L90.4081 78.9398C90.9589 78.9404 91.465 79.2428 91.7265 79.7274L99.8552 94.7885C104.232 102.14 110.558 104.146 115.227 102.158C119.943 100.15 123.99 93.6426 122.769 81.8391C122.767 81.817 122.765 81.7949 122.763 81.7727L121.459 59.5616C121.458 59.5492 121.457 59.5368 121.457 59.5243C121.084 48.4779 111.859 39.5863 100.479 39.574Z" fill="#CC00FF"/>
<path d="M95.9641 50.5473C95.9614 52.9922 97.9775 54.9838 100.463 54.9865C102.948 54.9891 104.968 53.0077 104.971 50.5571C104.974 48.1064 102.958 46.1206 100.472 46.1179C97.9871 46.1152 95.9667 48.0966 95.9641 50.5473Z" fill="#CC00FF"/>
<path d="M95.9447 68.4344C95.942 70.8793 97.9581 72.8709 100.443 72.8735C102.929 72.8762 104.949 70.8948 104.952 68.4441C104.954 65.9935 102.938 64.0077 100.453 64.005C97.9677 64.0023 95.9473 65.9837 95.9447 68.4344Z" fill="#CC00FF"/>
<path d="M109.55 55.0713C107.065 55.0686 105.045 57.05 105.042 59.5007C105.039 61.9514 107.055 63.9371 109.541 63.9398C112.026 63.9425 114.046 61.9611 114.049 59.5104C114.057 57.0598 112.041 55.074 109.55 55.0713Z" fill="#CC00FF"/>
<path d="M91.3749 55.0516C88.8897 55.0489 86.8693 57.0304 86.8667 59.481C86.864 61.9317 88.8801 63.9175 91.3653 63.9202C93.8506 63.9229 95.871 61.9414 95.8736 59.4908C95.8763 57.0401 93.8602 55.0543 91.3749 55.0516Z" fill="#CC00FF"/>
<path d="M43.359 60.4667C43.3582 61.1847 42.7755 61.7661 42.0576 61.7653L37.9777 61.7609C37.2597 61.7601 36.677 62.3415 36.6763 63.0595L36.6719 67.1394C36.6711 67.8574 36.0884 68.4388 35.3704 68.438L31.1774 68.4335C30.4594 68.4327 29.878 67.85 29.8788 67.1321L29.8832 63.0521C29.884 62.3342 29.3026 61.7515 28.5846 61.7507L24.4756 61.7463C23.7576 61.7455 23.1762 61.1629 23.177 60.4449L23.1816 56.2227C23.1823 55.5047 23.765 54.9233 24.483 54.9241L28.592 54.9286C29.31 54.9293 29.8927 54.3479 29.8934 53.63L29.8978 49.5501C29.8986 48.8321 30.4813 48.2507 31.1992 48.2515L35.3923 48.256C36.1102 48.2568 36.6916 48.8394 36.6909 49.5574L36.6865 53.6373C36.6857 54.3553 37.2671 54.9379 37.9851 54.9387L42.065 54.9431C42.7829 54.9439 43.3643 55.5266 43.3636 56.2445L43.359 60.4667Z" fill="#CC00FF"/>
</g>
<g filter="url(#filter4_f_333_2943)">
<path d="M67.9108 43.4089V22C67.9108 16.4772 72.3879 12 77.9108 12H255.911C261.434 12 265.911 16.4772 265.911 22V64" stroke="#CC00FF" stroke-width="3" stroke-linejoin="round"/>
</g>
<g filter="url(#filter5_f_333_2943)">
<path d="M67.9108 43.4089V22C67.9108 16.4772 72.3879 12 77.9108 12H255.911C261.434 12 265.911 16.4772 265.911 22V64" stroke="#CC00FF" stroke-width="3" stroke-linejoin="round"/>
</g>
<g filter="url(#filter6_d_333_2943)">
<path d="M67.9108 43.4089V22C67.9108 16.4772 72.3879 12 77.9108 12H255.911C261.434 12 265.911 16.4772 265.911 22V64" stroke="white" stroke-width="3" stroke-linejoin="round"/>
</g>
<path fill-rule="evenodd" clip-rule="evenodd" d="M87.1131 42.3828L62.9158 42.3566L50.2083 42.3429C46.4737 39.6219 41.8532 38.0105 36.85 38.0051C24.8612 37.9922 15.0503 47.2048 14.3539 58.8298L11.9306 81.201C9.19935 100.552 30.2506 106.994 39.5431 91.3056L46.1661 80.392L62.8746 80.41L90.2157 80.4396L96.6215 92.7303C102.143 105.614 126.769 105.924 124.261 81.6847L122.956 59.4725C122.554 47.6001 112.65 38.0871 100.481 38.0739C95.4775 38.0685 90.8536 39.6699 87.1131 42.3828ZM100.463 54.9865C97.9774 54.9838 95.9614 52.9922 95.964 50.5473C95.9667 48.0967 97.987 46.1152 100.472 46.1179C102.958 46.1206 104.974 48.1064 104.971 50.5571C104.968 53.0077 102.948 54.9892 100.463 54.9865ZM95.9445 68.4343C95.9419 70.8792 97.9579 72.8708 100.443 72.8735C102.928 72.8761 104.949 70.8947 104.951 68.444C104.954 65.9934 102.938 64.0076 100.453 64.0049C97.9675 64.0022 95.9472 65.9836 95.9445 68.4343ZM105.042 59.5006C105.045 57.05 107.065 55.0686 109.55 55.0712C112.041 55.0739 114.057 57.0597 114.049 59.5104C114.046 61.9611 112.026 63.9425 109.541 63.9398C107.055 63.9371 105.039 61.9513 105.042 59.5006ZM91.375 55.0516C88.8897 55.0489 86.8693 57.0303 86.8667 59.481C86.864 61.9317 88.8801 63.9174 91.3654 63.9201C93.8506 63.9228 95.871 61.9414 95.8736 59.4907C95.8763 57.0401 93.8602 55.0543 91.375 55.0516ZM42.0575 61.7653C42.7755 61.7661 43.3581 61.1847 43.3589 60.4667L43.3635 56.2445C43.3642 55.5265 42.7828 54.9439 42.0649 54.9431L37.985 54.9387C37.267 54.9379 36.6856 54.3553 36.6864 53.6373L36.6908 49.5574C36.6916 48.8394 36.1102 48.2568 35.3922 48.256L31.1992 48.2514C30.4812 48.2507 29.8985 48.8321 29.8978 49.55L29.8933 53.6299C29.8926 54.3479 29.3099 54.9293 28.5919 54.9285L24.4829 54.9241C23.7649 54.9233 23.1822 55.5047 23.1815 56.2227L23.1769 60.4449C23.1761 61.1628 23.7575 61.7455 24.4755 61.7463L28.5846 61.7507C29.3025 61.7515 29.8839 62.3342 29.8831 63.0521L29.8787 67.132C29.878 67.85 30.4594 68.4327 31.1773 68.4334L35.3704 68.438C36.0883 68.4388 36.671 67.8574 36.6718 67.1394L36.6762 63.0595C36.677 62.3415 37.2596 61.7601 37.9776 61.7609L42.0575 61.7653Z" fill="white"/>
<defs>
<filter id="filter0_d_333_2943" x="130.911" y="26.8378" width="256" height="85.8999" filterUnits="userSpaceOnUse" color-interpolation-filters="sRGB">
<feFlood flood-opacity="0" result="BackgroundImageFix"/>
<feColorMatrix in="SourceAlpha" type="matrix" values="0 0 0 0 0 0 0 0 0 0 0 0 0 0 0 0 0 0 127 0" result="hardAlpha"/>
<feOffset/>
<feGaussianBlur stdDeviation="5"/>
<feComposite in2="hardAlpha" operator="out"/>
<feColorMatrix type="matrix" values="0 0 0 0 0.8 0 0 0 0 0 0 0 0 0 1 0 0 0 1 0"/>
<feBlend mode="normal" in2="BackgroundImageFix" result="effect1_dropShadow_333_2943"/>
<feBlend mode="normal" in="SourceGraphic" in2="effect1_dropShadow_333_2943" result="shape"/>
</filter>
<filter id="filter1_d_333_2943" x="130.911" y="26.8376" width="256" height="85.8999" filterUnits="userSpaceOnUse" color-interpolation-filters="sRGB">
<feFlood flood-opacity="0" result="BackgroundImageFix"/>
<feColorMatrix in="SourceAlpha" type="matrix" values="0 0 0 0 0 0 0 0 0 0 0 0 0 0 0 0 0 0 127 0" result="hardAlpha"/>
<feOffset/>
<feGaussianBlur stdDeviation="5"/>
<feComposite in2="hardAlpha" operator="out"/>
<feColorMatrix type="matrix" values="0 0 0 0 0.8 0 0 0 0 0 0 0 0 0 1 0 0 0 1 0"/>
<feBlend mode="normal" in2="BackgroundImageFix" result="effect1_dropShadow_333_2943"/>
<feBlend mode="normal" in="SourceGraphic" in2="effect1_dropShadow_333_2943" result="shape"/>
</filter>
<filter id="filter2_df_333_2943" x="0.0217285" y="26.5051" width="135.964" height="89.3898" filterUnits="userSpaceOnUse" color-interpolation-filters="sRGB">
<feFlood flood-opacity="0" result="BackgroundImageFix"/>
<feColorMatrix in="SourceAlpha" type="matrix" values="0 0 0 0 0 0 0 0 0 0 0 0 0 0 0 0 0 0 127 0" result="hardAlpha"/>
<feOffset/>
<feGaussianBlur stdDeviation="5"/>
<feComposite in2="hardAlpha" operator="out"/>
<feColorMatrix type="matrix" values="0 0 0 0 0.8 0 0 0 0 0 0 0 0 0 1 0 0 0 0.5 0"/>
<feBlend mode="normal" in2="BackgroundImageFix" result="effect1_dropShadow_333_2943"/>
<feBlend mode="normal" in="SourceGraphic" in2="effect1_dropShadow_333_2943" result="shape"/>
<feGaussianBlur stdDeviation="5" result="effect2_foregroundBlur_333_2943"/>
</filter>
<filter id="filter3_df_333_2943" x="0.0217285" y="26.5051" width="135.964" height="89.3898" filterUnits="userSpaceOnUse" color-interpolation-filters="sRGB">
<feFlood flood-opacity="0" result="BackgroundImageFix"/>
<feColorMatrix in="SourceAlpha" type="matrix" values="0 0 0 0 0 0 0 0 0 0 0 0 0 0 0 0 0 0 127 0" result="hardAlpha"/>
<feOffset/>
<feGaussianBlur stdDeviation="5"/>
<feComposite in2="hardAlpha" operator="out"/>
<feColorMatrix type="matrix" values="0 0 0 0 0.8 0 0 0 0 0 0 0 0 0 1 0 0 0 0.5 0"/>
<feBlend mode="normal" in2="BackgroundImageFix" result="effect1_dropShadow_333_2943"/>
<feBlend mode="normal" in="SourceGraphic" in2="effect1_dropShadow_333_2943" result="shape"/>
<feGaussianBlur stdDeviation="5" result="effect2_foregroundBlur_333_2943"/>
</filter>
<filter id="filter4_f_333_2943" x="56.4108" y="0.5" width="221" height="73.5" filterUnits="userSpaceOnUse" color-interpolation-filters="sRGB">
<feFlood flood-opacity="0" result="BackgroundImageFix"/>
<feBlend mode="normal" in="SourceGraphic" in2="BackgroundImageFix" result="shape"/>
<feGaussianBlur stdDeviation="5" result="effect1_foregroundBlur_333_2943"/>
</filter>
<filter id="filter5_f_333_2943" x="56.4108" y="0.5" width="221" height="73.5" filterUnits="userSpaceOnUse" color-interpolation-filters="sRGB">
<feFlood flood-opacity="0" result="BackgroundImageFix"/>
<feBlend mode="normal" in="SourceGraphic" in2="BackgroundImageFix" result="shape"/>
<feGaussianBlur stdDeviation="5" result="effect1_foregroundBlur_333_2943"/>
</filter>
<filter id="filter6_d_333_2943" x="62.4108" y="10.5" width="209" height="61.5" filterUnits="userSpaceOnUse" color-interpolation-filters="sRGB">
<feFlood flood-opacity="0" result="BackgroundImageFix"/>
<feColorMatrix in="SourceAlpha" type="matrix" values="0 0 0 0 0 0 0 0 0 0 0 0 0 0 0 0 0 0 127 0" result="hardAlpha"/>
<feOffset dy="4"/>
<feGaussianBlur stdDeviation="2"/>
<feComposite in2="hardAlpha" operator="out"/>
<feColorMatrix type="matrix" values="0 0 0 0 0 0 0 0 0 0 0 0 0 0 0 0 0 0 0.25 0"/>
<feBlend mode="normal" in2="BackgroundImageFix" result="effect1_dropShadow_333_2943"/>
<feBlend mode="normal" in="SourceGraphic" in2="effect1_dropShadow_333_2943" result="shape"/>
</filter>
</defs>
</svg>
