<svg width="387" height="106" viewBox="0 0 387 106" fill="none" xmlns="http://www.w3.org/2000/svg">
<g filter="url(#filter0_d_333_2943)">
<path d="M164.133 79.1084C164.133 80.066 164.015 80.9215 163.778 81.6747C163.541 82.4279 163.218 83.0951 162.81 83.6761C162.411 84.2464 161.949 84.736 161.421 85.1449C160.894 85.5538 160.34 85.8874 159.759 86.1457C159.189 86.4039 158.608 86.5922 158.016 86.7106C157.435 86.8289 156.886 86.8881 156.37 86.8881H146.879V82.6916H156.37C156.908 82.6485 157.392 82.5409 157.822 82.3688C158.263 82.1858 158.64 81.9437 158.952 81.6424C159.264 81.3411 159.506 80.9807 159.678 80.561C159.85 80.1306 159.937 79.6464 159.937 79.1084V77.2038C159.883 76.6765 159.77 76.1923 159.598 75.7511C159.425 75.3099 159.189 74.9333 158.887 74.6213C158.597 74.3092 158.242 74.0671 157.822 73.895C157.402 73.712 156.918 73.6206 156.37 73.6206H146.911C146.352 73.6206 145.927 73.7658 145.636 74.0564C145.345 74.3469 145.2 74.7665 145.2 75.3153V92.5696H141.004V75.3153C141.004 74.2393 141.197 73.3247 141.585 72.5714C141.983 71.8182 142.472 71.2102 143.054 70.7475C143.645 70.2848 144.286 69.9513 144.974 69.7468C145.663 69.5316 146.298 69.424 146.879 69.424H156.37C157.316 69.424 158.166 69.5478 158.92 69.7952C159.673 70.032 160.335 70.3548 160.905 70.7637C161.486 71.1618 161.976 71.6245 162.374 72.1518C162.783 72.679 163.116 73.2332 163.375 73.8143C163.644 74.3846 163.837 74.9656 163.956 75.5574C164.074 76.1385 164.133 76.6873 164.133 77.2038V79.1084Z" fill="#CC00FF"/>
<path d="M188.99 92.5696H169.847C169.546 92.5696 169.266 92.5158 169.008 92.4082C168.749 92.3006 168.523 92.1553 168.33 91.9724C168.147 91.7787 168.001 91.5528 167.894 91.2945C167.786 91.0363 167.732 90.7565 167.732 90.4552V69.424H171.929V88.3731H188.99V92.5696Z" fill="#CC00FF"/>
<path d="M214.782 92.5696H210.586V86.8881H195.833V92.5696H191.637V80.9968C191.637 79.3074 191.927 77.7526 192.508 76.3322C193.089 74.9118 193.896 73.6905 194.929 72.6683C195.962 71.646 197.184 70.8498 198.593 70.2795C200.003 69.7092 201.542 69.424 203.209 69.424H212.668C212.958 69.424 213.233 69.4778 213.491 69.5854C213.749 69.693 213.975 69.8437 214.169 70.0374C214.363 70.231 214.513 70.457 214.621 70.7153C214.729 70.9735 214.782 71.2479 214.782 71.5384V92.5696ZM195.833 82.6916H210.586V73.6206H203.209C203.08 73.6206 202.806 73.6421 202.386 73.6851C201.977 73.7174 201.499 73.8089 200.95 73.9595C200.412 74.1102 199.842 74.3415 199.239 74.6536C198.636 74.9656 198.082 75.396 197.576 75.9448C197.071 76.4936 196.651 77.1823 196.317 78.0108C195.995 78.8286 195.833 79.8239 195.833 80.9968V82.6916Z" fill="#CC00FF"/>
<path d="M241.721 77.1715C241.721 78.1292 241.597 78.9846 241.35 79.7378C241.113 80.4911 240.796 81.1582 240.397 81.7393C239.999 82.3096 239.531 82.7992 238.993 83.2081C238.466 83.617 237.917 83.9559 237.347 84.2249C236.777 84.4832 236.195 84.6715 235.604 84.7898C235.023 84.9082 234.474 84.9674 233.957 84.9674H232.263V92.5696H228.034V84.9674H226.355C225.839 84.9674 225.284 84.9082 224.693 84.7898C224.112 84.6715 223.531 84.4832 222.949 84.2249C222.379 83.9559 221.83 83.617 221.303 83.2081C220.776 82.7992 220.308 82.3096 219.899 81.7393C219.501 81.1582 219.178 80.4911 218.93 79.7378C218.694 78.9739 218.575 78.1184 218.575 77.1715V69.424H222.772V77.1715C222.772 77.7203 222.858 78.2153 223.03 78.6564C223.202 79.0868 223.444 79.4581 223.756 79.7701C224.069 80.0822 224.445 80.3243 224.886 80.4965C225.338 80.6579 225.839 80.7386 226.387 80.7386H233.957C234.355 80.674 234.764 80.5933 235.184 80.4965C235.604 80.3889 235.986 80.2113 236.33 79.9638C236.674 79.7163 236.959 79.372 237.185 78.9308C237.411 78.4896 237.524 77.9032 237.524 77.1715V69.424H241.721V77.1715Z" fill="#CC00FF"/>
<path d="M169.412 53.8325H162.427L151.354 42.8012H147.89V37.8691H151.354L162.427 26.8377H169.412L155.461 40.3351L169.412 53.8325ZM145.921 53.8325H141V26.8377H145.921V53.8325Z" fill="#CC00FF"/>
<path d="M177.456 53.8325H172.535V26.8377H177.456V53.8325Z" fill="#CC00FF"/>
<path d="M210.298 42.5376C210.298 44.1816 210.007 45.6939 209.427 47.0744C208.859 48.4549 208.07 49.6471 207.061 50.6511C206.051 51.6426 204.852 52.4206 203.464 52.9854C202.076 53.5501 200.568 53.8325 198.94 53.8325H185.653C185.299 53.8325 184.971 53.7698 184.668 53.6443C184.365 53.5188 184.1 53.3493 183.873 53.136C183.659 52.9101 183.488 52.6465 183.362 52.3453C183.236 52.0442 183.173 51.7179 183.173 51.3665V29.3038C183.173 28.9649 183.236 28.6449 183.362 28.3437C183.488 28.0425 183.659 27.7789 183.873 27.5531C184.1 27.3272 184.365 27.1515 184.668 27.026C184.971 26.9005 185.299 26.8377 185.653 26.8377H198.94C200.568 26.8377 202.076 27.1201 203.464 27.6848C204.852 28.2496 206.051 29.0339 207.061 30.0379C208.07 31.0294 208.859 32.2216 209.427 33.6146C210.007 34.9951 210.298 36.5011 210.298 38.1326V42.5376ZM205.376 38.1326C205.376 37.1788 205.218 36.3066 204.903 35.516C204.6 34.7253 204.165 34.0539 203.597 33.5017C203.029 32.937 202.348 32.504 201.553 32.2028C200.77 31.889 199.899 31.7322 198.94 31.7322H188.094V48.9381H198.94C199.899 48.9381 200.77 48.7875 201.553 48.4863C202.348 48.1725 203.029 47.7395 203.597 47.1873C204.165 46.6226 204.6 45.9512 204.903 45.1731C205.218 44.3824 205.376 43.504 205.376 42.5376V38.1326Z" fill="#CC00FF"/>
<path d="M241.208 45.8884C241.208 46.8548 241.082 47.727 240.829 48.5051C240.59 49.2706 240.268 49.9483 239.864 50.5382C239.46 51.128 238.987 51.63 238.444 52.0442C237.902 52.4583 237.34 52.7971 236.76 53.0607C236.179 53.3242 235.586 53.5188 234.98 53.6443C234.387 53.7698 233.826 53.8325 233.296 53.8325H214.31V48.9381H233.296C234.242 48.9381 234.974 48.662 235.492 48.1098C236.022 47.5576 236.287 46.8171 236.287 45.8884C236.287 45.4366 236.217 45.0225 236.078 44.646C235.94 44.2695 235.738 43.9432 235.473 43.6671C235.22 43.391 234.905 43.1777 234.526 43.0271C234.16 42.8765 233.75 42.8012 233.296 42.8012H221.977C221.182 42.8012 220.323 42.6631 219.402 42.387C218.481 42.0984 217.623 41.6403 216.828 41.0128C216.046 40.3853 215.389 39.5633 214.859 38.5468C214.342 37.5302 214.083 36.2878 214.083 34.8194C214.083 33.3511 214.342 32.1149 214.859 31.1109C215.389 30.0944 216.046 29.2724 216.828 28.6449C217.623 28.0048 218.481 27.5468 219.402 27.2707C220.323 26.982 221.182 26.8377 221.977 26.8377H238.728V31.7322H221.977C221.043 31.7322 220.311 32.0145 219.781 32.5793C219.263 33.144 219.005 33.8907 219.005 34.8194C219.005 35.7607 219.263 36.5074 219.781 37.0596C220.311 37.5992 221.043 37.8691 221.977 37.8691H233.296H233.334C233.864 37.8816 234.425 37.9569 235.018 38.095C235.611 38.2205 236.198 38.4213 236.779 38.6973C237.372 38.9734 237.933 39.3248 238.463 39.7515C238.993 40.1657 239.46 40.6677 239.864 41.2575C240.28 41.8474 240.609 42.5251 240.848 43.2906C241.088 44.0561 241.208 44.9221 241.208 45.8884Z" fill="#CC00FF"/>
<path d="M269.146 85.6362C269.146 86.5 269.035 87.2797 268.813 87.9753C268.602 88.6596 268.319 89.2654 267.964 89.7927C267.609 90.32 267.193 90.7688 266.716 91.139C266.239 91.5092 265.745 91.8121 265.235 92.0477C264.724 92.2833 264.203 92.4572 263.67 92.5694C263.149 92.6816 262.655 92.7377 262.189 92.7377H245.498V88.3623H262.189C263.021 88.3623 263.665 88.1155 264.12 87.6219C264.586 87.1283 264.819 86.4663 264.819 85.6362C264.819 85.2323 264.758 84.8621 264.636 84.5255C264.514 84.1889 264.336 83.8972 264.103 83.6504C263.881 83.4036 263.604 83.2129 263.271 83.0783C262.949 82.9436 262.589 82.8763 262.189 82.8763H252.238C251.539 82.8763 250.784 82.7529 249.974 82.5061C249.165 82.2481 248.41 81.8386 247.711 81.2776C247.023 80.7167 246.446 79.9819 245.98 79.0731C245.526 78.1644 245.298 77.0537 245.298 75.7411C245.298 74.4285 245.526 73.3235 245.98 72.426C246.446 71.5172 247.023 70.7824 247.711 70.2215C248.41 69.6493 249.165 69.2398 249.974 68.993C250.784 68.735 251.539 68.606 252.238 68.606H266.966V72.9813H252.238C251.417 72.9813 250.773 73.2337 250.307 73.7386C249.852 74.2434 249.625 74.9109 249.625 75.7411C249.625 76.5825 249.852 77.2501 250.307 77.7437C250.773 78.2261 251.417 78.4673 252.238 78.4673H262.189H262.223C262.689 78.4785 263.182 78.5458 263.704 78.6693C264.225 78.7814 264.741 78.9609 265.251 79.2078C265.773 79.4546 266.267 79.7687 266.733 80.1501C267.198 80.5204 267.609 80.9691 267.964 81.4964C268.33 82.0237 268.619 82.6295 268.829 83.3139C269.04 83.9982 269.146 84.7723 269.146 85.6362Z" fill="#CC00FF"/>
<path d="M296.155 92.7377H291.828V86.8141H276.618V92.7377H272.291V80.6718C272.291 78.9105 272.59 77.2893 273.189 75.8085C273.789 74.3276 274.621 73.0542 275.686 71.9884C276.751 70.9226 278.01 70.0925 279.463 69.4979C280.917 68.9033 282.503 68.606 284.223 68.606H293.975C294.274 68.606 294.557 68.6621 294.824 68.7742C295.09 68.8864 295.323 69.0435 295.523 69.2454C295.722 69.4474 295.878 69.683 295.989 69.9522C296.099 70.2215 296.155 70.5075 296.155 70.8105V92.7377ZM276.618 82.4388H291.828V72.9813H284.223C284.09 72.9813 283.807 73.0037 283.374 73.0486C282.953 73.0823 282.459 73.1776 281.893 73.3347C281.338 73.4918 280.75 73.733 280.129 74.0583C279.508 74.3837 278.936 74.8324 278.415 75.4046C277.894 75.9767 277.461 76.6947 277.117 77.5586C276.784 78.4112 276.618 79.449 276.618 80.6718V82.4388Z" fill="#CC00FF"/>
<path d="M320.934 82.8763H307.255V78.4673H320.934V82.8763ZM322.865 72.9813H305.524V92.7377H301.197V70.8105C301.197 70.5075 301.253 70.2215 301.364 69.9522C301.475 69.683 301.624 69.4474 301.813 69.2454C302.013 69.0435 302.246 68.8864 302.512 68.7742C302.778 68.6621 303.067 68.606 303.377 68.606H322.865V72.9813Z" fill="#CC00FF"/>
<path d="M345.98 82.8763H332.317V78.4673H345.98V82.8763ZM347.927 92.7377H332.317C331.718 92.7377 331.064 92.6311 330.354 92.4179C329.643 92.2048 328.983 91.857 328.373 91.3746C327.774 90.881 327.269 90.2471 326.859 89.473C326.459 88.6877 326.26 87.7285 326.26 86.5954V70.8105C326.26 70.5075 326.315 70.2215 326.426 69.9522C326.537 69.683 326.687 69.4474 326.875 69.2454C327.075 69.0435 327.308 68.8864 327.574 68.7742C327.841 68.6621 328.129 68.606 328.44 68.606H347.927V72.9813H330.586V86.5954C330.586 87.1675 330.736 87.6051 331.036 87.908C331.335 88.2109 331.774 88.3623 332.351 88.3623H347.927V92.7377Z" fill="#CC00FF"/>
<path d="M375.968 76.7172C375.968 77.7157 375.846 78.6075 375.602 79.3929C375.358 80.1782 375.025 80.8738 374.604 81.4796C374.193 82.0742 373.716 82.5846 373.172 83.0109C372.629 83.4373 372.057 83.7907 371.458 84.0711C370.87 84.3404 370.271 84.5367 369.661 84.6601C369.062 84.7835 368.496 84.8452 367.964 84.8452L377 92.7377H370.31L361.29 84.8452H358.178V80.4699H367.964C368.507 80.425 369.001 80.3128 369.445 80.1333C369.9 79.9426 370.288 79.6902 370.61 79.376C370.942 79.0619 371.198 78.6861 371.375 78.2485C371.553 77.7998 371.641 77.2893 371.641 76.7172V73.9573C371.641 73.7105 371.608 73.5254 371.542 73.402C371.486 73.2674 371.408 73.172 371.309 73.1159C371.22 73.0486 371.12 73.0094 371.009 72.9981C370.909 72.9869 370.815 72.9813 370.726 72.9813H356.448V92.7377H352.121V70.8105C352.121 70.5075 352.176 70.2215 352.287 69.9522C352.398 69.683 352.548 69.4474 352.737 69.2454C352.936 69.0435 353.169 68.8864 353.435 68.7742C353.702 68.6621 353.99 68.606 354.301 68.606H370.726C371.691 68.606 372.507 68.7855 373.172 69.1445C373.838 69.4922 374.376 69.9354 374.787 70.4739C375.208 71.0012 375.508 71.5733 375.685 72.1904C375.874 72.8074 375.968 73.3852 375.968 73.9237V76.7172Z" fill="#CC00FF"/>
</g>
<path d="M164.133 79.1084C164.133 80.066 164.015 80.9215 163.778 81.6747C163.541 82.4279 163.218 83.0951 162.81 83.6761C162.411 84.2464 161.949 84.736 161.421 85.1449C160.894 85.5538 160.34 85.8874 159.759 86.1457C159.189 86.4039 158.608 86.5922 158.016 86.7106C157.435 86.8289 156.886 86.8881 156.37 86.8881H146.879V82.6916H156.37C156.908 82.6485 157.392 82.5409 157.822 82.3688C158.263 82.1858 158.64 81.9437 158.952 81.6424C159.264 81.3411 159.506 80.9807 159.678 80.561C159.85 80.1306 159.937 79.6464 159.937 79.1084V77.2038C159.883 76.6765 159.77 76.1923 159.598 75.7511C159.425 75.3099 159.189 74.9333 158.887 74.6213C158.597 74.3092 158.242 74.0671 157.822 73.895C157.402 73.712 156.918 73.6206 156.37 73.6206H146.911C146.352 73.6206 145.927 73.7658 145.636 74.0564C145.345 74.3469 145.2 74.7665 145.2 75.3153V92.5696H141.004V75.3153C141.004 74.2393 141.197 73.3247 141.585 72.5714C141.983 71.8182 142.472 71.2102 143.054 70.7475C143.645 70.2848 144.286 69.9513 144.974 69.7468C145.663 69.5316 146.298 69.424 146.879 69.424H156.37C157.316 69.424 158.166 69.5478 158.92 69.7952C159.673 70.032 160.335 70.3548 160.905 70.7637C161.486 71.1618 161.976 71.6245 162.374 72.1518C162.783 72.679 163.116 73.2332 163.375 73.8143C163.644 74.3846 163.837 74.9656 163.956 75.5574C164.074 76.1385 164.133 76.6873 164.133 77.2038V79.1084Z" fill="white"/>
<path d="M188.99 92.5696H169.847C169.546 92.5696 169.266 92.5158 169.008 92.4082C168.749 92.3006 168.523 92.1553 168.33 91.9724C168.147 91.7787 168.001 91.5528 167.894 91.2945C167.786 91.0363 167.732 90.7565 167.732 90.4552V69.424H171.929V88.3731H188.99V92.5696Z" fill="white"/>
<path d="M214.782 92.5696H210.586V86.8881H195.833V92.5696H191.637V80.9968C191.637 79.3074 191.927 77.7526 192.508 76.3322C193.089 74.9118 193.896 73.6905 194.929 72.6683C195.962 71.646 197.184 70.8498 198.593 70.2795C200.003 69.7092 201.542 69.424 203.209 69.424H212.668C212.958 69.424 213.233 69.4778 213.491 69.5854C213.749 69.693 213.975 69.8437 214.169 70.0374C214.363 70.231 214.513 70.457 214.621 70.7153C214.729 70.9735 214.782 71.2479 214.782 71.5384V92.5696ZM195.833 82.6916H210.586V73.6206H203.209C203.08 73.6206 202.806 73.6421 202.386 73.6851C201.977 73.7174 201.499 73.8089 200.95 73.9595C200.412 74.1102 199.842 74.3415 199.239 74.6536C198.636 74.9656 198.082 75.396 197.576 75.9448C197.071 76.4936 196.651 77.1823 196.317 78.0108C195.995 78.8286 195.833 79.8239 195.833 80.9968V82.6916Z" fill="white"/>
<path d="M241.721 77.1715C241.721 78.1292 241.597 78.9846 241.35 79.7378C241.113 80.4911 240.796 81.1582 240.397 81.7393C239.999 82.3096 239.531 82.7992 238.993 83.2081C238.466 83.617 237.917 83.9559 237.347 84.2249C236.777 84.4832 236.195 84.6715 235.604 84.7898C235.023 84.9082 234.474 84.9674 233.957 84.9674H232.263V92.5696H228.034V84.9674H226.355C225.839 84.9674 225.284 84.9082 224.693 84.7898C224.112 84.6715 223.531 84.4832 222.949 84.2249C222.379 83.9559 221.83 83.617 221.303 83.2081C220.776 82.7992 220.308 82.3096 219.899 81.7393C219.501 81.1582 219.178 80.4911 218.93 79.7378C218.694 78.9739 218.575 78.1184 218.575 77.1715V69.424H222.772V77.1715C222.772 77.7203 222.858 78.2153 223.03 78.6564C223.202 79.0868 223.444 79.4581 223.756 79.7701C224.069 80.0822 224.445 80.3243 224.886 80.4965C225.338 80.6579 225.839 80.7386 226.387 80.7386H233.957C234.355 80.674 234.764 80.5933 235.184 80.4965C235.604 80.3889 235.986 80.2113 236.33 79.9638C236.674 79.7163 236.959 79.372 237.185 78.9308C237.411 78.4896 237.524 77.9032 237.524 77.1715V69.424H241.721V77.1715Z" fill="white"/>
<path d="M169.412 53.8325H162.427L151.354 42.8012H147.89V37.8691H151.354L162.427 26.8377H169.412L155.461 40.3351L169.412 53.8325ZM145.921 53.8325H141V26.8377H145.921V53.8325Z" fill="white"/>
<path d="M177.456 53.8325H172.535V26.8377H177.456V53.8325Z" fill="white"/>
<path d="M210.298 42.5376C210.298 44.1816 210.007 45.6939 209.427 47.0744C208.859 48.4549 208.07 49.6471 207.061 50.6511C206.051 51.6426 204.852 52.4206 203.464 52.9854C202.076 53.5501 200.568 53.8325 198.94 53.8325H185.653C185.299 53.8325 184.971 53.7698 184.668 53.6443C184.365 53.5188 184.1 53.3493 183.873 53.136C183.659 52.9101 183.488 52.6465 183.362 52.3453C183.236 52.0442 183.173 51.7179 183.173 51.3665V29.3038C183.173 28.9649 183.236 28.6449 183.362 28.3437C183.488 28.0425 183.659 27.7789 183.873 27.5531C184.1 27.3272 184.365 27.1515 184.668 27.026C184.971 26.9005 185.299 26.8377 185.653 26.8377H198.94C200.568 26.8377 202.076 27.1201 203.464 27.6848C204.852 28.2496 206.051 29.0339 207.061 30.0379C208.07 31.0294 208.859 32.2216 209.427 33.6146C210.007 34.9951 210.298 36.5011 210.298 38.1326V42.5376ZM205.376 38.1326C205.376 37.1788 205.218 36.3066 204.903 35.516C204.6 34.7253 204.165 34.0539 203.597 33.5017C203.029 32.937 202.348 32.504 201.553 32.2028C200.77 31.889 199.899 31.7322 198.94 31.7322H188.094V48.9381H198.94C199.899 48.9381 200.77 48.7875 201.553 48.4863C202.348 48.1725 203.029 47.7395 203.597 47.1873C204.165 46.6226 204.6 45.9512 204.903 45.1731C205.218 44.3824 205.376 43.504 205.376 42.5376V38.1326Z" fill="white"/>
<path d="M241.208 45.8884C241.208 46.8548 241.082 47.727 240.829 48.5051C240.59 49.2706 240.268 49.9483 239.864 50.5382C239.46 51.128 238.987 51.63 238.444 52.0442C237.902 52.4583 237.34 52.7971 236.76 53.0607C236.179 53.3242 235.586 53.5188 234.98 53.6443C234.387 53.7698 233.826 53.8325 233.296 53.8325H214.31V48.9381H233.296C234.242 48.9381 234.974 48.662 235.492 48.1098C236.022 47.5576 236.287 46.8171 236.287 45.8884C236.287 45.4366 236.217 45.0225 236.078 44.646C235.94 44.2695 235.738 43.9432 235.473 43.6671C235.22 43.391 234.905 43.1777 234.526 43.0271C234.16 42.8765 233.75 42.8012 233.296 42.8012H221.977C221.182 42.8012 220.323 42.6631 219.402 42.387C218.481 42.0984 217.623 41.6403 216.828 41.0128C216.046 40.3853 215.389 39.5633 214.859 38.5468C214.342 37.5302 214.083 36.2878 214.083 34.8194C214.083 33.3511 214.342 32.1149 214.859 31.1109C215.389 30.0944 216.046 29.2724 216.828 28.6449C217.623 28.0048 218.481 27.5468 219.402 27.2707C220.323 26.982 221.182 26.8377 221.977 26.8377H238.728V31.7322H221.977C221.043 31.7322 220.311 32.0145 219.781 32.5793C219.263 33.144 219.005 33.8907 219.005 34.8194C219.005 35.7607 219.263 36.5074 219.781 37.0596C220.311 37.5992 221.043 37.8691 221.977 37.8691H233.296H233.334C233.864 37.8816 234.425 37.9569 235.018 38.095C235.611 38.2205 236.198 38.4213 236.779 38.6973C237.372 38.9734 237.933 39.3248 238.463 39.7515C238.993 40.1657 239.46 40.6677 239.864 41.2575C240.28 41.8474 240.609 42.5251 240.848 43.2906C241.088 44.0561 241.208 44.9221 241.208 45.8884Z" fill="white"/>
<path d="M269.146 85.6362C269.146 86.5 269.035 87.2797 268.813 87.9753C268.602 88.6596 268.319 89.2654 267.964 89.7927C267.609 90.32 267.193 90.7688 266.716 91.139C266.239 91.5092 265.745 91.8121 265.235 92.0477C264.724 92.2833 264.203 92.4572 263.67 92.5694C263.149 92.6816 262.655 92.7377 262.189 92.7377H245.498V88.3623H262.189C263.021 88.3623 263.665 88.1155 264.12 87.6219C264.586 87.1283 264.819 86.4663 264.819 85.6362C264.819 85.2323 264.758 84.8621 264.636 84.5255C264.514 84.1889 264.336 83.8972 264.103 83.6504C263.881 83.4036 263.604 83.2129 263.271 83.0783C262.949 82.9436 262.589 82.8763 262.189 82.8763H252.238C251.539 82.8763 250.784 82.7529 249.974 82.5061C249.165 82.2481 248.41 81.8386 247.711 81.2776C247.023 80.7167 246.446 79.9819 245.98 79.0731C245.526 78.1644 245.298 77.0537 245.298 75.7411C245.298 74.4285 245.526 73.3235 245.98 72.426C246.446 71.5172 247.023 70.7824 247.711 70.2215C248.41 69.6493 249.165 69.2398 249.974 68.993C250.784 68.735 251.539 68.606 252.238 68.606H266.966V72.9813H252.238C251.417 72.9813 250.773 73.2337 250.307 73.7386C249.852 74.2434 249.625 74.9109 249.625 75.7411C249.625 76.5825 249.852 77.2501 250.307 77.7437C250.773 78.2261 251.417 78.4673 252.238 78.4673H262.189H262.223C262.689 78.4785 263.182 78.5458 263.704 78.6693C264.225 78.7814 264.741 78.9609 265.251 79.2078C265.773 79.4546 266.267 79.7687 266.733 80.1501C267.198 80.5204 267.609 80.9691 267.964 81.4964C268.33 82.0237 268.619 82.6295 268.829 83.3139C269.04 83.9982 269.146 84.7723 269.146 85.6362Z" fill="white"/>
<path d="M296.155 92.7377H291.828V86.8141H276.618V92.7377H272.291V80.6718C272.291 78.9105 272.59 77.2893 273.189 75.8085C273.789 74.3276 274.621 73.0542 275.686 71.9884C276.751 70.9226 278.01 70.0925 279.463 69.4979C280.917 68.9033 282.503 68.606 284.223 68.606H293.975C294.274 68.606 294.557 68.6621 294.824 68.7742C295.09 68.8864 295.323 69.0435 295.523 69.2454C295.722 69.4474 295.878 69.683 295.989 69.9522C296.099 70.2215 296.155 70.5075 296.155 70.8105V92.7377ZM276.618 82.4388H291.828V72.9813H284.223C284.09 72.9813 283.807 73.0037 283.374 73.0486C282.953 73.0823 282.459 73.1776 281.893 73.3347C281.338 73.4918 280.75 73.733 280.129 74.0583C279.508 74.3837 278.936 74.8324 278.415 75.4046C277.894 75.9767 277.461 76.6947 277.117 77.5586C276.784 78.4112 276.618 79.449 276.618 80.6718V82.4388Z" fill="white"/>
<path d="M320.934 82.8763H307.255V78.4673H320.934V82.8763ZM322.865 72.9813H305.524V92.7377H301.197V70.8105C301.197 70.5075 301.253 70.2215 301.364 69.9522C301.475 69.683 301.624 69.4474 301.813 69.2454C302.013 69.0435 302.246 68.8864 302.512 68.7742C302.778 68.6621 303.067 68.606 303.377 68.606H322.865V72.9813Z" fill="white"/>
<path d="M345.98 82.8763H332.317V78.4673H345.98V82.8763ZM347.927 92.7377H332.317C331.718 92.7377 331.064 92.6311 330.354 92.4179C329.643 92.2048 328.983 91.857 328.373 91.3746C327.774 90.881 327.269 90.2471 326.859 89.473C326.459 88.6877 326.26 87.7285 326.26 86.5954V70.8105C326.26 70.5075 326.315 70.2215 326.426 69.9522C326.537 69.683 326.687 69.4474 326.875 69.2454C327.075 69.0435 327.308 68.8864 327.574 68.7742C327.841 68.6621 328.129 68.606 328.44 68.606H347.927V72.9813H330.586V86.5954C330.586 87.1675 330.736 87.6051 331.036 87.908C331.335 88.2109 331.774 88.3623 332.351 88.3623H347.927V92.7377Z" fill="white"/>
<path d="M375.968 76.7172C375.968 77.7157 375.846 78.6075 375.602 79.3929C375.358 80.1782 375.025 80.8738 374.604 81.4796C374.193 82.0742 373.716 82.5846 373.172 83.0109C372.629 83.4373 372.057 83.7907 371.458 84.0711C370.87 84.3404 370.271 84.5367 369.661 84.6601C369.062 84.7835 368.496 84.8452 367.964 84.8452L377 92.7377H370.31L361.29 84.8452H358.178V80.4699H367.964C368.507 80.425 369.001 80.3128 369.445 80.1333C369.9 79.9426 370.288 79.6902 370.61 79.376C370.942 79.0619 371.198 78.6861 371.375 78.2485C371.553 77.7998 371.641 77.2893 371.641 76.7172V73.9573C371.641 73.7105 371.608 73.5254 371.542 73.402C371.486 73.2674 371.408 73.172 371.309 73.1159C371.22 73.0486 371.12 73.0094 371.009 72.9981C370.909 72.9869 370.815 72.9813 370.726 72.9813H356.448V92.7377H352.121V70.8105C352.121 70.5075 352.176 70.2215 352.287 69.9522C352.398 69.683 352.548 69.4474 352.737 69.2454C352.936 69.0435 353.169 68.8864 353.435 68.7742C353.702 68.6621 353.99 68.606 354.301 68.606H370.726C371.691 68.606 372.507 68.7855 373.172 69.1445C373.838 69.4922 374.376 69.9354 374.787 70.4739C375.208 71.0012 375.508 71.5733 375.685 72.1904C375.874 72.8074 375.968 73.3852 375.968 73.9237V76.7172Z" fill="white"/>
<g opacity="0.5" filter="url(#filter1_df_333_2943)">
<path fill-rule="evenodd" clip-rule="evenodd" d="M86.7253 30.8823C90.642 28.1626 95.4212 26.5684 100.572 26.574C113.524 26.588 124.105 36.7135 124.544 49.4042L125.846 71.5637C127.121 83.9806 122.94 92.1724 116.491 94.9184C109.995 97.6847 102.222 94.5009 97.3494 86.2941C97.3436 86.2844 97.338 86.2746 97.3324 86.2647C97.3279 86.2568 97.3235 86.2488 97.3192 86.2408L89.6003 71.9388L62.9624 71.91L47.0994 71.8929L40.9207 82.0742C40.9197 82.0757 40.9188 82.0773 40.9179 82.0788C35.9646 90.3765 27.4681 93.4042 20.5336 91.3053C17.0659 90.2557 14.0452 87.9297 12.1598 84.4343C10.283 80.955 9.5828 76.4184 10.5341 70.99L12.9483 48.7036C13.7114 36.2869 24.1869 26.4914 36.941 26.5052C42.0917 26.5107 46.8675 28.1152 50.7783 30.8434L63.0068 30.8566L86.7253 30.8823ZM100.569 29.574C95.891 29.5689 91.5744 31.065 88.0833 33.5971C87.8267 33.7831 87.5179 33.8831 87.201 33.8828L63.0036 33.8566L50.2961 33.8429C49.9792 33.8425 49.6705 33.7418 49.4144 33.5552C45.9288 31.0156 41.6154 29.5102 36.9378 29.5052C25.7269 29.493 16.5886 38.1036 15.9407 48.9196C15.9392 48.9436 15.9372 48.9675 15.9346 48.9914L13.5113 71.3626C13.5077 71.396 13.5029 71.4293 13.4971 71.4624C12.6256 76.3872 13.3001 80.2291 14.8002 83.0101C16.2974 85.7858 18.6687 87.6064 21.4027 88.4339C26.8703 90.0888 34.014 87.7948 38.3444 80.537L38.3501 80.5274L38.3502 80.5274L44.9733 69.6137C45.2455 69.1651 45.7324 68.8914 46.2572 68.8919L62.9657 68.91L90.4974 68.9398C91.0481 68.9404 91.5542 69.2427 91.8158 69.7274L99.9444 84.7885C104.321 92.1395 110.647 94.1463 115.316 92.1582C120.032 90.1498 124.079 83.6426 122.858 71.8391C122.856 71.817 122.854 71.7948 122.853 71.7727L121.548 49.5616C121.547 49.5492 121.547 49.5367 121.546 49.5243C121.173 38.4779 111.949 29.5863 100.569 29.574Z" fill="#CC00FF"/>
<path d="M96.0533 40.5473C96.0507 42.9922 98.0667 44.9838 100.552 44.9865C103.037 44.9891 105.058 43.0077 105.06 40.5571C105.063 38.1064 103.047 36.1206 100.562 36.1179C98.0763 36.1152 96.056 38.0966 96.0533 40.5473Z" fill="#CC00FF"/>
<path d="M96.0339 58.4343C96.0313 60.8792 98.0473 62.8708 100.533 62.8735C103.018 62.8762 105.038 60.8948 105.041 58.4441C105.043 55.9934 103.027 54.0076 100.542 54.0049C98.0569 54.0022 96.0366 55.9837 96.0339 58.4343Z" fill="#CC00FF"/>
<path d="M109.639 45.0712C107.154 45.0686 105.134 47.05 105.131 49.5007C105.129 51.9513 107.145 53.9371 109.63 53.9398C112.115 53.9425 114.135 51.9611 114.138 49.5104C114.147 47.0597 112.13 45.0739 109.639 45.0712Z" fill="#CC00FF"/>
<path d="M91.4642 45.0516C88.9789 45.0489 86.9585 47.0303 86.9559 49.481C86.9532 51.9317 88.9693 53.9175 91.4546 53.9201C93.9398 53.9228 95.9602 51.9414 95.9628 49.4907C95.9655 47.0401 93.9494 45.0543 91.4642 45.0516Z" fill="#CC00FF"/>
<path d="M43.4482 50.4668C43.4474 51.1847 42.8648 51.7661 42.1468 51.7653L38.0669 51.7609C37.3489 51.7602 36.7663 52.3416 36.7655 53.0595L36.7611 57.1394C36.7603 57.8574 36.1776 58.4388 35.4597 58.438L31.2666 58.4335C30.5487 58.4327 29.9673 57.8501 29.9681 57.1321L29.9725 53.0522C29.9732 52.3342 29.3918 51.7515 28.6739 51.7508L24.5648 51.7463C23.8468 51.7455 23.2654 51.1629 23.2662 50.4449L23.2708 46.2227C23.2716 45.5048 23.8542 44.9234 24.5722 44.9241L28.6813 44.9286C29.3992 44.9294 29.9819 44.348 29.9827 43.63L29.9871 39.5501C29.9879 38.8321 30.5705 38.2507 31.2885 38.2515L35.4815 38.256C36.1995 38.2568 36.7809 38.8395 36.7801 39.5574L36.7757 43.6373C36.7749 44.3553 37.3563 44.938 38.0743 44.9387L42.1542 44.9432C42.8722 44.9439 43.4536 45.5266 43.4528 46.2446L43.4482 50.4668Z" fill="#CC00FF"/>
</g>
<g opacity="0.5" filter="url(#filter2_df_333_2943)">
<path fill-rule="evenodd" clip-rule="evenodd" d="M86.7253 30.8823C90.642 28.1626 95.4212 26.5684 100.572 26.574C113.524 26.588 124.105 36.7135 124.544 49.4042L125.846 71.5637C127.121 83.9806 122.94 92.1724 116.491 94.9184C109.995 97.6847 102.222 94.5009 97.3494 86.2941C97.3436 86.2844 97.338 86.2746 97.3324 86.2647C97.3279 86.2568 97.3235 86.2488 97.3192 86.2408L89.6003 71.9388L62.9624 71.91L47.0994 71.8929L40.9207 82.0742C40.9197 82.0757 40.9188 82.0773 40.9179 82.0788C35.9646 90.3765 27.4681 93.4042 20.5336 91.3053C17.0659 90.2557 14.0452 87.9297 12.1598 84.4343C10.283 80.955 9.5828 76.4184 10.5341 70.99L12.9483 48.7036C13.7114 36.2869 24.1869 26.4914 36.941 26.5052C42.0917 26.5107 46.8675 28.1152 50.7783 30.8434L63.0068 30.8566L86.7253 30.8823ZM100.569 29.574C95.891 29.5689 91.5744 31.065 88.0833 33.5971C87.8267 33.7831 87.5179 33.8831 87.201 33.8828L63.0036 33.8566L50.2961 33.8429C49.9792 33.8425 49.6705 33.7418 49.4144 33.5552C45.9288 31.0156 41.6154 29.5102 36.9378 29.5052C25.7269 29.493 16.5886 38.1036 15.9407 48.9196C15.9392 48.9436 15.9372 48.9675 15.9346 48.9914L13.5113 71.3626C13.5077 71.396 13.5029 71.4293 13.4971 71.4624C12.6256 76.3872 13.3001 80.2291 14.8002 83.0101C16.2974 85.7858 18.6687 87.6064 21.4027 88.4339C26.8703 90.0888 34.014 87.7948 38.3444 80.537L38.3501 80.5274L38.3502 80.5274L44.9733 69.6137C45.2455 69.1651 45.7324 68.8914 46.2572 68.8919L62.9657 68.91L90.4974 68.9398C91.0481 68.9404 91.5542 69.2427 91.8158 69.7274L99.9444 84.7885C104.321 92.1395 110.647 94.1463 115.316 92.1582C120.032 90.1498 124.079 83.6426 122.858 71.8391C122.856 71.817 122.854 71.7948 122.853 71.7727L121.548 49.5616C121.547 49.5492 121.547 49.5367 121.546 49.5243C121.173 38.4779 111.949 29.5863 100.569 29.574Z" fill="#CC00FF"/>
<path d="M96.0533 40.5473C96.0507 42.9922 98.0667 44.9838 100.552 44.9865C103.037 44.9891 105.058 43.0077 105.06 40.5571C105.063 38.1064 103.047 36.1206 100.562 36.1179C98.0763 36.1152 96.056 38.0966 96.0533 40.5473Z" fill="#CC00FF"/>
<path d="M96.0339 58.4343C96.0313 60.8792 98.0473 62.8708 100.533 62.8735C103.018 62.8762 105.038 60.8948 105.041 58.4441C105.043 55.9934 103.027 54.0076 100.542 54.0049C98.0569 54.0022 96.0366 55.9837 96.0339 58.4343Z" fill="#CC00FF"/>
<path d="M109.639 45.0712C107.154 45.0686 105.134 47.05 105.131 49.5007C105.129 51.9513 107.145 53.9371 109.63 53.9398C112.115 53.9425 114.135 51.9611 114.138 49.5104C114.147 47.0597 112.13 45.0739 109.639 45.0712Z" fill="#CC00FF"/>
<path d="M91.4642 45.0516C88.9789 45.0489 86.9585 47.0303 86.9559 49.481C86.9532 51.9317 88.9693 53.9175 91.4546 53.9201C93.9398 53.9228 95.9602 51.9414 95.9628 49.4907C95.9655 47.0401 93.9494 45.0543 91.4642 45.0516Z" fill="#CC00FF"/>
<path d="M43.4482 50.4668C43.4474 51.1847 42.8648 51.7661 42.1468 51.7653L38.0669 51.7609C37.3489 51.7602 36.7663 52.3416 36.7655 53.0595L36.7611 57.1394C36.7603 57.8574 36.1776 58.4388 35.4597 58.438L31.2666 58.4335C30.5487 58.4327 29.9673 57.8501 29.9681 57.1321L29.9725 53.0522C29.9732 52.3342 29.3918 51.7515 28.6739 51.7508L24.5648 51.7463C23.8468 51.7455 23.2654 51.1629 23.2662 50.4449L23.2708 46.2227C23.2716 45.5048 23.8542 44.9234 24.5722 44.9241L28.6813 44.9286C29.3992 44.9294 29.9819 44.348 29.9827 43.63L29.9871 39.5501C29.9879 38.8321 30.5705 38.2507 31.2885 38.2515L35.4815 38.256C36.1995 38.2568 36.7809 38.8395 36.7801 39.5574L36.7757 43.6373C36.7749 44.3553 37.3563 44.938 38.0743 44.9387L42.1542 44.9432C42.8722 44.9439 43.4536 45.5266 43.4528 46.2446L43.4482 50.4668Z" fill="#CC00FF"/>
</g>
<path fill-rule="evenodd" clip-rule="evenodd" d="M87.2023 32.3828L63.005 32.3566L50.2975 32.3429C46.5629 29.6219 41.9425 28.0105 36.9392 28.0051C24.9504 27.9922 15.1395 37.2048 14.4432 48.8298L12.0198 71.201C9.28858 90.5523 30.3399 96.9939 39.6323 81.3056L46.2554 70.392L62.9638 70.41L90.3049 70.4396L96.7108 82.7303C102.232 95.6136 126.858 95.9238 124.35 71.6847L123.045 49.4725C122.643 37.6001 112.739 28.0871 100.57 28.0739C95.5668 28.0685 90.9428 29.6699 87.2023 32.3828ZM100.552 44.9865C98.0667 44.9838 96.0506 42.9922 96.0533 40.5473C96.0559 38.0967 98.0763 36.1152 100.562 36.1179C103.047 36.1206 105.063 38.1064 105.06 40.5571C105.058 43.0077 103.037 44.9892 100.552 44.9865ZM96.0337 58.4343C96.0311 60.8792 98.0471 62.8708 100.532 62.8735C103.018 62.8761 105.038 60.8947 105.041 58.444C105.043 55.9934 103.027 54.0076 100.542 54.0049C98.0567 54.0022 96.0364 55.9836 96.0337 58.4343ZM105.131 49.5006C105.134 47.05 107.154 45.0686 109.639 45.0712C112.131 45.0739 114.147 47.0597 114.138 49.5104C114.135 51.9611 112.115 53.9425 109.63 53.9398C107.145 53.9371 105.129 51.9513 105.131 49.5006ZM91.4642 45.0516C88.9789 45.0489 86.9586 47.0303 86.9559 49.481C86.9533 51.9317 88.9693 53.9174 91.4546 53.9201C93.9399 53.9228 95.9602 51.9414 95.9629 49.4907C95.9655 47.0401 93.9495 45.0543 91.4642 45.0516ZM42.1467 51.7653C42.8647 51.7661 43.4474 51.1847 43.4481 50.4667L43.4527 46.2445C43.4535 45.5265 42.8721 44.9439 42.1541 44.9431L38.0742 44.9387C37.3562 44.9379 36.7748 44.3553 36.7756 43.6373L36.78 39.5574C36.7808 38.8394 36.1994 38.2568 35.4814 38.256L31.2884 38.2514C30.5704 38.2507 29.9878 38.8321 29.987 39.55L29.9826 43.6299C29.9818 44.3479 29.3991 44.9293 28.6812 44.9285L24.5721 44.9241C23.8541 44.9233 23.2715 45.5047 23.2707 46.2227L23.2661 50.4449C23.2654 51.1628 23.8468 51.7455 24.5647 51.7463L28.6738 51.7507C29.3918 51.7515 29.9732 52.3342 29.9724 53.0521L29.968 57.132C29.9672 57.85 30.5486 58.4327 31.2666 58.4334L35.4596 58.438C36.1776 58.4388 36.7602 57.8574 36.761 57.1394L36.7654 53.0595C36.7662 52.3415 37.3488 51.7601 38.0668 51.7609L42.1467 51.7653Z" fill="white"/>
<path d="M68 33.4089V12C68 6.47715 72.4772 2 78 2H256C261.523 2 266 6.47715 266 12V54" stroke="white" stroke-width="3" stroke-linejoin="round"/>
<defs>
<filter id="filter0_d_333_2943" x="131" y="16.8377" width="256" height="85.9" filterUnits="userSpaceOnUse" color-interpolation-filters="sRGB">
<feFlood flood-opacity="0" result="BackgroundImageFix"/>
<feColorMatrix in="SourceAlpha" type="matrix" values="0 0 0 0 0 0 0 0 0 0 0 0 0 0 0 0 0 0 127 0" result="hardAlpha"/>
<feOffset/>
<feGaussianBlur stdDeviation="5"/>
<feComposite in2="hardAlpha" operator="out"/>
<feColorMatrix type="matrix" values="0 0 0 0 0.8 0 0 0 0 0 0 0 0 0 1 0 0 0 1 0"/>
<feBlend mode="normal" in2="BackgroundImageFix" result="effect1_dropShadow_333_2943"/>
<feBlend mode="normal" in="SourceGraphic" in2="effect1_dropShadow_333_2943" result="shape"/>
</filter>
<filter id="filter1_df_333_2943" x="0.110962" y="16.5051" width="135.964" height="89.3898" filterUnits="userSpaceOnUse" color-interpolation-filters="sRGB">
<feFlood flood-opacity="0" result="BackgroundImageFix"/>
<feColorMatrix in="SourceAlpha" type="matrix" values="0 0 0 0 0 0 0 0 0 0 0 0 0 0 0 0 0 0 127 0" result="hardAlpha"/>
<feOffset/>
<feGaussianBlur stdDeviation="5"/>
<feComposite in2="hardAlpha" operator="out"/>
<feColorMatrix type="matrix" values="0 0 0 0 0.8 0 0 0 0 0 0 0 0 0 1 0 0 0 0.5 0"/>
<feBlend mode="normal" in2="BackgroundImageFix" result="effect1_dropShadow_333_2943"/>
<feBlend mode="normal" in="SourceGraphic" in2="effect1_dropShadow_333_2943" result="shape"/>
<feGaussianBlur stdDeviation="5" result="effect2_foregroundBlur_333_2943"/>
</filter>
<filter id="filter2_df_333_2943" x="0.110962" y="16.5051" width="135.964" height="89.3898" filterUnits="userSpaceOnUse" color-interpolation-filters="sRGB">
<feFlood flood-opacity="0" result="BackgroundImageFix"/>
<feColorMatrix in="SourceAlpha" type="matrix" values="0 0 0 0 0 0 0 0 0 0 0 0 0 0 0 0 0 0 127 0" result="hardAlpha"/>
<feOffset/>
<feGaussianBlur stdDeviation="5"/>
<feComposite in2="hardAlpha" operator="out"/>
<feColorMatrix type="matrix" values="0 0 0 0 0.8 0 0 0 0 0 0 0 0 0 1 0 0 0 0.5 0"/>
<feBlend mode="normal" in2="BackgroundImageFix" result="effect1_dropShadow_333_2943"/>
<feBlend mode="normal" in="SourceGraphic" in2="effect1_dropShadow_333_2943" result="shape"/>
<feGaussianBlur stdDeviation="5" result="effect2_foregroundBlur_333_2943"/>
</filter>
</defs>
</svg>
