<svg width="137" height="90" viewBox="0 0 137 90" fill="none" xmlns="http://www.w3.org/2000/svg">
<g opacity="0.5" filter="url(#filter0_df_326_3463)">
<path fill-rule="evenodd" clip-rule="evenodd" d="M86.7253 14.8823C90.642 12.1626 95.4212 10.5684 100.572 10.574C113.524 10.588 124.105 20.7135 124.544 33.4042L125.846 55.5637C127.121 67.9806 122.94 76.1724 116.491 78.9184C109.995 81.6847 102.222 78.5009 97.3494 70.2941C97.3436 70.2844 97.338 70.2746 97.3324 70.2647C97.3279 70.2568 97.3235 70.2488 97.3192 70.2408L89.6003 55.9388L62.9624 55.91L47.0994 55.8929L40.9207 66.0742C40.9197 66.0757 40.9188 66.0773 40.9179 66.0788C35.9646 74.3765 27.4681 77.4042 20.5336 75.3053C17.0659 74.2557 14.0452 71.9297 12.1598 68.4343C10.283 64.955 9.5828 60.4184 10.5341 54.99L12.9483 32.7036C13.7114 20.2869 24.1869 10.4914 36.941 10.5052C42.0917 10.5107 46.8675 12.1152 50.7783 14.8434L63.0068 14.8566L86.7253 14.8823ZM100.569 13.574C95.891 13.5689 91.5744 15.065 88.0833 17.5971C87.8267 17.7831 87.5179 17.8831 87.201 17.8828L63.0036 17.8566L50.2961 17.8429C49.9792 17.8425 49.6705 17.7418 49.4144 17.5552C45.9288 15.0156 41.6154 13.5102 36.9378 13.5052C25.7269 13.493 16.5886 22.1036 15.9407 32.9196C15.9392 32.9436 15.9372 32.9675 15.9346 32.9914L13.5113 55.3626C13.5077 55.396 13.5029 55.4293 13.4971 55.4624C12.6256 60.3872 13.3001 64.2291 14.8002 67.0101C16.2974 69.7858 18.6687 71.6064 21.4027 72.4339C26.8703 74.0888 34.014 71.7948 38.3444 64.537L38.3501 64.5274L38.3502 64.5274L44.9733 53.6137C45.2455 53.1651 45.7324 52.8914 46.2572 52.8919L62.9657 52.91L90.4974 52.9398C91.0481 52.9404 91.5542 53.2427 91.8158 53.7274L99.9444 68.7885C104.321 76.1395 110.647 78.1463 115.316 76.1582C120.032 74.1498 124.079 67.6426 122.858 55.8391C122.856 55.817 122.854 55.7948 122.853 55.7727L121.548 33.5616C121.547 33.5492 121.547 33.5367 121.546 33.5243C121.173 22.4779 111.949 13.5863 100.569 13.574Z" fill="#CC00FF"/>
<path d="M96.0533 24.5473C96.0507 26.9922 98.0667 28.9838 100.552 28.9865C103.037 28.9891 105.058 27.0077 105.06 24.5571C105.063 22.1064 103.047 20.1206 100.562 20.1179C98.0763 20.1152 96.056 22.0966 96.0533 24.5473Z" fill="#CC00FF"/>
<path d="M96.0339 42.4343C96.0313 44.8792 98.0473 46.8708 100.533 46.8735C103.018 46.8762 105.038 44.8948 105.041 42.4441C105.043 39.9934 103.027 38.0076 100.542 38.0049C98.0569 38.0022 96.0366 39.9837 96.0339 42.4343Z" fill="#CC00FF"/>
<path d="M109.639 29.0712C107.154 29.0686 105.134 31.05 105.131 33.5007C105.129 35.9513 107.145 37.9371 109.63 37.9398C112.115 37.9425 114.135 35.9611 114.138 33.5104C114.147 31.0597 112.13 29.0739 109.639 29.0712Z" fill="#CC00FF"/>
<path d="M91.4642 29.0516C88.9789 29.0489 86.9585 31.0303 86.9559 33.481C86.9532 35.9317 88.9693 37.9175 91.4546 37.9201C93.9398 37.9228 95.9602 35.9414 95.9628 33.4907C95.9655 31.0401 93.9494 29.0543 91.4642 29.0516Z" fill="#CC00FF"/>
<path d="M43.4482 34.4668C43.4474 35.1847 42.8648 35.7661 42.1468 35.7653L38.0669 35.7609C37.3489 35.7602 36.7663 36.3416 36.7655 37.0595L36.7611 41.1394C36.7603 41.8574 36.1776 42.4388 35.4597 42.438L31.2666 42.4335C30.5487 42.4327 29.9673 41.8501 29.9681 41.1321L29.9725 37.0522C29.9732 36.3342 29.3918 35.7515 28.6739 35.7508L24.5648 35.7463C23.8468 35.7455 23.2654 35.1629 23.2662 34.4449L23.2708 30.2227C23.2716 29.5048 23.8542 28.9234 24.5722 28.9241L28.6813 28.9286C29.3992 28.9294 29.9819 28.348 29.9827 27.63L29.9871 23.5501C29.9879 22.8321 30.5705 22.2507 31.2885 22.2515L35.4815 22.256C36.1995 22.2568 36.7809 22.8395 36.7801 23.5574L36.7757 27.6373C36.7749 28.3553 37.3563 28.938 38.0743 28.9387L42.1542 28.9432C42.8722 28.9439 43.4536 29.5266 43.4528 30.2446L43.4482 34.4668Z" fill="#CC00FF"/>
</g>
<g opacity="0.5" filter="url(#filter1_df_326_3463)">
<path fill-rule="evenodd" clip-rule="evenodd" d="M86.7253 14.8823C90.642 12.1626 95.4212 10.5684 100.572 10.574C113.524 10.588 124.105 20.7135 124.544 33.4042L125.846 55.5637C127.121 67.9806 122.94 76.1724 116.491 78.9184C109.995 81.6847 102.222 78.5009 97.3494 70.2941C97.3436 70.2844 97.338 70.2746 97.3324 70.2647C97.3279 70.2568 97.3235 70.2488 97.3192 70.2408L89.6003 55.9388L62.9624 55.91L47.0994 55.8929L40.9207 66.0742C40.9197 66.0757 40.9188 66.0773 40.9179 66.0788C35.9646 74.3765 27.4681 77.4042 20.5336 75.3053C17.0659 74.2557 14.0452 71.9297 12.1598 68.4343C10.283 64.955 9.5828 60.4184 10.5341 54.99L12.9483 32.7036C13.7114 20.2869 24.1869 10.4914 36.941 10.5052C42.0917 10.5107 46.8675 12.1152 50.7783 14.8434L63.0068 14.8566L86.7253 14.8823ZM100.569 13.574C95.891 13.5689 91.5744 15.065 88.0833 17.5971C87.8267 17.7831 87.5179 17.8831 87.201 17.8828L63.0036 17.8566L50.2961 17.8429C49.9792 17.8425 49.6705 17.7418 49.4144 17.5552C45.9288 15.0156 41.6154 13.5102 36.9378 13.5052C25.7269 13.493 16.5886 22.1036 15.9407 32.9196C15.9392 32.9436 15.9372 32.9675 15.9346 32.9914L13.5113 55.3626C13.5077 55.396 13.5029 55.4293 13.4971 55.4624C12.6256 60.3872 13.3001 64.2291 14.8002 67.0101C16.2974 69.7858 18.6687 71.6064 21.4027 72.4339C26.8703 74.0888 34.014 71.7948 38.3444 64.537L38.3501 64.5274L38.3502 64.5274L44.9733 53.6137C45.2455 53.1651 45.7324 52.8914 46.2572 52.8919L62.9657 52.91L90.4974 52.9398C91.0481 52.9404 91.5542 53.2427 91.8158 53.7274L99.9444 68.7885C104.321 76.1395 110.647 78.1463 115.316 76.1582C120.032 74.1498 124.079 67.6426 122.858 55.8391C122.856 55.817 122.854 55.7948 122.853 55.7727L121.548 33.5616C121.547 33.5492 121.547 33.5367 121.546 33.5243C121.173 22.4779 111.949 13.5863 100.569 13.574Z" fill="#CC00FF"/>
<path d="M96.0533 24.5473C96.0507 26.9922 98.0667 28.9838 100.552 28.9865C103.037 28.9891 105.058 27.0077 105.06 24.5571C105.063 22.1064 103.047 20.1206 100.562 20.1179C98.0763 20.1152 96.056 22.0966 96.0533 24.5473Z" fill="#CC00FF"/>
<path d="M96.0339 42.4343C96.0313 44.8792 98.0473 46.8708 100.533 46.8735C103.018 46.8762 105.038 44.8948 105.041 42.4441C105.043 39.9934 103.027 38.0076 100.542 38.0049C98.0569 38.0022 96.0366 39.9837 96.0339 42.4343Z" fill="#CC00FF"/>
<path d="M109.639 29.0712C107.154 29.0686 105.134 31.05 105.131 33.5007C105.129 35.9513 107.145 37.9371 109.63 37.9398C112.115 37.9425 114.135 35.9611 114.138 33.5104C114.147 31.0597 112.13 29.0739 109.639 29.0712Z" fill="#CC00FF"/>
<path d="M91.4642 29.0516C88.9789 29.0489 86.9585 31.0303 86.9559 33.481C86.9532 35.9317 88.9693 37.9175 91.4546 37.9201C93.9398 37.9228 95.9602 35.9414 95.9628 33.4907C95.9655 31.0401 93.9494 29.0543 91.4642 29.0516Z" fill="#CC00FF"/>
<path d="M43.4482 34.4668C43.4474 35.1847 42.8648 35.7661 42.1468 35.7653L38.0669 35.7609C37.3489 35.7602 36.7663 36.3416 36.7655 37.0595L36.7611 41.1394C36.7603 41.8574 36.1776 42.4388 35.4597 42.438L31.2666 42.4335C30.5487 42.4327 29.9673 41.8501 29.9681 41.1321L29.9725 37.0522C29.9732 36.3342 29.3918 35.7515 28.6739 35.7508L24.5648 35.7463C23.8468 35.7455 23.2654 35.1629 23.2662 34.4449L23.2708 30.2227C23.2716 29.5048 23.8542 28.9234 24.5722 28.9241L28.6813 28.9286C29.3992 28.9294 29.9819 28.348 29.9827 27.63L29.9871 23.5501C29.9879 22.8321 30.5705 22.2507 31.2885 22.2515L35.4815 22.256C36.1995 22.2568 36.7809 22.8395 36.7801 23.5574L36.7757 27.6373C36.7749 28.3553 37.3563 28.938 38.0743 28.9387L42.1542 28.9432C42.8722 28.9439 43.4536 29.5266 43.4528 30.2446L43.4482 34.4668Z" fill="#CC00FF"/>
</g>
<path fill-rule="evenodd" clip-rule="evenodd" d="M87.2023 16.3828L63.005 16.3566L50.2975 16.3429C46.5629 13.6219 41.9424 12.0106 36.9392 12.0051C24.9504 11.9922 15.1395 21.2048 14.4432 32.8298L12.0198 55.201C9.28856 74.5523 30.3399 80.9939 39.6323 65.3056L46.2554 54.392L62.9638 54.41L90.3049 54.4396L96.7107 66.7303C102.232 79.6136 126.858 79.9238 124.35 55.6847L123.045 33.4725C122.643 21.6001 112.739 12.0871 100.57 12.0739C95.5667 12.0685 90.9428 13.6699 87.2023 16.3828ZM100.552 28.9865C98.0667 28.9838 96.0506 26.9922 96.0533 24.5473C96.0559 22.0967 98.0762 20.1152 100.562 20.1179C103.047 20.1206 105.063 22.1064 105.06 24.5571C105.058 27.0078 103.037 28.9892 100.552 28.9865ZM96.0337 42.4343C96.0311 44.8792 98.0471 46.8708 100.532 46.8735C103.018 46.8761 105.038 44.8947 105.041 42.4441C105.043 39.9934 103.027 38.0076 100.542 38.0049C98.0567 38.0022 96.0364 39.9836 96.0337 42.4343ZM105.131 33.5007C105.134 31.05 107.154 29.0686 109.639 29.0712C112.13 29.0739 114.147 31.0597 114.138 33.5104C114.135 35.9611 112.115 37.9425 109.63 37.9398C107.145 37.9371 105.129 35.9513 105.131 33.5007ZM91.4642 29.0516C88.9789 29.0489 86.9586 31.0303 86.9559 33.481C86.9533 35.9317 88.9693 37.9175 91.4546 37.9201C93.9399 37.9228 95.9602 35.9414 95.9629 33.4907C95.9655 31.0401 93.9494 29.0543 91.4642 29.0516ZM42.1467 35.7653C42.8647 35.7661 43.4473 35.1847 43.4481 34.4667L43.4527 30.2445C43.4535 29.5265 42.8721 28.9439 42.1541 28.9431L38.0742 28.9387C37.3562 28.9379 36.7748 28.3553 36.7756 27.6373L36.78 23.5574C36.7808 22.8394 36.1994 22.2568 35.4814 22.256L31.2884 22.2514C30.5704 22.2507 29.9877 22.8321 29.987 23.55L29.9826 27.6299C29.9818 28.3479 29.3991 28.9293 28.6812 28.9285L24.5721 28.9241C23.8541 28.9233 23.2715 29.5047 23.2707 30.2227L23.2661 34.4449C23.2653 35.1628 23.8467 35.7455 24.5647 35.7463L28.6738 35.7507C29.3917 35.7515 29.9731 36.3342 29.9724 37.0521L29.968 41.132C29.9672 41.85 30.5486 42.4327 31.2665 42.4334L35.4596 42.438C36.1775 42.4388 36.7602 41.8574 36.761 41.1394L36.7654 37.0595C36.7662 36.3415 37.3488 35.7601 38.0668 35.7609L42.1467 35.7653Z" fill="white"/>
<defs>
<filter id="filter0_df_326_3463" x="0.110962" y="0.505127" width="135.964" height="89.3898" filterUnits="userSpaceOnUse" color-interpolation-filters="sRGB">
<feFlood flood-opacity="0" result="BackgroundImageFix"/>
<feColorMatrix in="SourceAlpha" type="matrix" values="0 0 0 0 0 0 0 0 0 0 0 0 0 0 0 0 0 0 127 0" result="hardAlpha"/>
<feOffset/>
<feGaussianBlur stdDeviation="5"/>
<feComposite in2="hardAlpha" operator="out"/>
<feColorMatrix type="matrix" values="0 0 0 0 0.8 0 0 0 0 0 0 0 0 0 1 0 0 0 0.5 0"/>
<feBlend mode="normal" in2="BackgroundImageFix" result="effect1_dropShadow_326_3463"/>
<feBlend mode="normal" in="SourceGraphic" in2="effect1_dropShadow_326_3463" result="shape"/>
<feGaussianBlur stdDeviation="5" result="effect2_foregroundBlur_326_3463"/>
</filter>
<filter id="filter1_df_326_3463" x="0.110962" y="0.505127" width="135.964" height="89.3898" filterUnits="userSpaceOnUse" color-interpolation-filters="sRGB">
<feFlood flood-opacity="0" result="BackgroundImageFix"/>
<feColorMatrix in="SourceAlpha" type="matrix" values="0 0 0 0 0 0 0 0 0 0 0 0 0 0 0 0 0 0 127 0" result="hardAlpha"/>
<feOffset/>
<feGaussianBlur stdDeviation="5"/>
<feComposite in2="hardAlpha" operator="out"/>
<feColorMatrix type="matrix" values="0 0 0 0 0.8 0 0 0 0 0 0 0 0 0 1 0 0 0 0.5 0"/>
<feBlend mode="normal" in2="BackgroundImageFix" result="effect1_dropShadow_326_3463"/>
<feBlend mode="normal" in="SourceGraphic" in2="effect1_dropShadow_326_3463" result="shape"/>
<feGaussianBlur stdDeviation="5" result="effect2_foregroundBlur_326_3463"/>
</filter>
</defs>
</svg>
